<svg xmlns="http://www.w3.org/2000/svg" viewBox="0 0 48.19 47.7"><defs><style>.cls-2{fill:#fff}</style></defs><g id="图层_2" data-name="图层 2"><g id="图层_1-2" data-name="图层 1"><rect x=".25" width="47.7" height="47.7" rx="10.61" opacity=".01" fill="#fff"/><circle class="cls-2" cx="24.01" cy="23.85" r="12.81"/><path class="cls-2" d="M6.59 28.46a1.69 1.69 0 01-1-3.08 3.62 3.62 0 001.24-2 4.86 4.86 0 00-.21-1.95 7.81 7.81 0 01-.26-3.34A6.92 6.92 0 019 14a1.69 1.69 0 012.36.41 1.7 1.7 0 01-.36 2.33 3.44 3.44 0 00-1.26 2 4.74 4.74 0 00.21 2A7.75 7.75 0 0110.2 24a6.84 6.84 0 01-2.63 4.15 1.7 1.7 0 01-.98.31zM1.7 27.6a1.69 1.69 0 01-1-3.08 3.51 3.51 0 001.24-2 4.74 4.74 0 00-.21-2 7.76 7.76 0 01-.25-3.33 6.76 6.76 0 012.63-4.15 1.69 1.69 0 012 2.76 3.54 3.54 0 00-1.25 2 4.69 4.69 0 00.21 1.95 8 8 0 01.25 3.34 6.84 6.84 0 01-2.63 4.15 1.67 1.67 0 01-.99.36zM37.79 34a1.69 1.69 0 01-1-3.08 3.51 3.51 0 001.24-2 4.69 4.69 0 00-.19-1.92 7.67 7.67 0 01-.25-3.34 6.88 6.88 0 012.62-4.15 1.7 1.7 0 012 2.77 3.45 3.45 0 00-1.25 2 4.68 4.68 0 00.21 1.95 8 8 0 01.25 3.34 6.8 6.8 0 01-2.63 4.15 1.67 1.67 0 01-1 .28zM43.09 34.9a1.69 1.69 0 01-1-3.08 3.56 3.56 0 001.24-2 4.74 4.74 0 00-.21-2 7.94 7.94 0 01-.25-3.33 6.8 6.8 0 012.63-4.15 1.69 1.69 0 012 2.76 3.55 3.55 0 00-1.25 2 4.69 4.69 0 00.21 2 8 8 0 01.25 3.34 6.87 6.87 0 01-2.63 4.15 1.65 1.65 0 01-.99.31z"/></g></g></svg>