<svg xmlns="http://www.w3.org/2000/svg" viewBox="0 0 65 65"><g data-name="图层 2"><g data-name="图层 1" fill="#fff"><rect width="65" height="65" rx="7.09" opacity=".05"/><path d="M56.87 17a5.13 5.13 0 010-10.26 5.13 5.13 0 110 10.26zm.36 14c-2.85-2-4.15-2.9-5.1-4.42-1.77-2.81-1-7.36-3.42-11.11a9.47 9.47 0 00-3.29-3.27c-3.7-2.08-6.74-2.16-9.77-2.48a82.12 82.12 0 00-13.41-.16 2.34 2.34 0 10.4 4.67 48.48 48.48 0 0112.52.36.71.71 0 01.26 1.3l-7 4.57a6.59 6.59 0 00-1.89 1.74c-3 4.21-3.84 7.39-5 12.33l-1.97 6.57a.7.7 0 01-.59.51L15.9 42h-.17a2.35 2.35 0 00-2.05 2.62 2 2 0 000 .26V45L4.1 53a2.93 2.93 0 003.68 4.57l13.49-11.15a.67.67 0 01.41-.16c6.49-.46 16.18-1.26 17.62-3.61s-.24-4.7-1.8-7c-1.37-2-2.7-4-2.19-6 .53-2.08 3-3.8 5.55-5.26a3.48 3.48 0 013.37-.1c1.72.85 2.79 3.55 4.63 5.64a23.83 23.83 0 006.42 4.82c2.47 1.25 4.34-2.53 1.95-3.75zm-26.51 7.75a2.85 2.85 0 01-2.31 1.68l-1.36.17a.72.72 0 01-.76-1l1.94-5.16a.68.68 0 01.59-.46.72.72 0 01.68.32l1 1.57a2.85 2.85 0 01.2 2.84z"/></g></g></svg>