<svg xmlns="http://www.w3.org/2000/svg" viewBox="0 0 65 65"><g data-name="图层 2"><g data-name="图层 1" fill="#fff"><rect width="65" height="65" rx="7.09" opacity=".05"/><path d="M47.88 9.75L34.82 4.87a3.9 3.9 0 00-5.25 3.65v31h-4l-.28.05h-.28l-.28.07-.27.06-.28.07-.27.08-.27.08-.26.09-.26.09-.26.09-.26.11-.25.1-.25.11-.24.12-.24.11-.24.12-.23.13-.22.13-.23.13-.22.14-.23.14-.25.16-.22.16-.18.14-.22.16-.22.18-.21.17-.21.18-.21.19-.21.2-.2.2-.2.2-.2.21-.19.21-.19.22-.18.22-.18.23-.17.23-.17.23-.16.24-.16.25-.15.24L16 46l-.14.26-.14.25-.12.26-.12.26-.12.27-.1.26-.1.27-.09.27-.07.3-.08.27-.07.27-.06.27-.06.27v3.64l.05.24.06.24.06.24.07.23.08.22.08.22.09.22.09.21.09.21.1.2.11.2.11.2.11.19.12.19.13.19.13.19.14.18.15.19.15.18.15.18.17.17.17.17.18.17.18.17.19.16.19.16.2.15.21.15.21.15.22.14.28.17.23.13.24.13.23.12.25.11.25.11.25.1.26.09.26.09.26.08.27.08.28.07.27.06h.56l.28.05h4.02l.28-.06.28-.07.27-.07.28-.08.27-.08.26-.08.27-.1.26-.09.26-.11.25-.1.25-.11.24-.12.22-.15.24-.13.23-.12.23-.13.32-.19.31-.2.31-.21.31-.22.31-.23.3-.24.3-.25.29-.26.29-.28.28-.28.27-.29.27-.31.25-.31.25-.32.24-.32.22-.34.22-.34.2-.35.19-.36.18-.36.16-.37.08-.18.08-.19.07-.22.07-.19.06-.19.06-.19v-.18l.06-.19V17.22a2.16 2.16 0 012.91-2l5.3 1.78a3.89 3.89 0 002.72-7.29z" fill-rule="evenodd"/></g></g></svg>