<svg xmlns="http://www.w3.org/2000/svg" viewBox="0 0 65 65"><g data-name="图层 2"><g data-name="图层 1" fill="#fff"><rect width="65" height="65" rx="7.09" opacity=".05"/><path d="M60.31 31.58a4.72 4.72 0 01-.49 1.72 8.79 8.79 0 01-1.77 2.11L46.58 46.88l-5.74 5.73-4.12 4.13-1.19 1.18-.31.32s0 .11-.11.11a4 4 0 01-5.22 0c-.07 0-.07-.07-.11-.11l-.31-.32-1.19-1.18-4.12-4.13-5.74-5.73Q12.69 41.13 7 35.41a8.23 8.23 0 01-1.77-2.12 4.67 4.67 0 01-.49-1.71 4.8 4.8 0 018.1-3.92c.79.75 1.54 1.54 2.3 2.3l3.44 3.44 5.73 5.73A1.61 1.61 0 0027 38V11.39a5.29 5.29 0 011.53-4 5.51 5.51 0 017.94 0 5.29 5.29 0 011.53 4V38a1.61 1.61 0 002.74 1.13l5.74-5.74L49.91 30c.77-.77 1.52-1.55 2.3-2.3a4.8 4.8 0 018.1 3.92z"/></g></g></svg>