<svg xmlns="http://www.w3.org/2000/svg" viewBox="0 0 53 53"><defs><style>.cls-2{fill:#fff}</style></defs><g id="图层_2" data-name="图层 2"><g id="图层_1-2" data-name="图层 1"><rect width="53" height="53" rx="7.93" opacity=".03" fill="#fff"/><path class="cls-2" d="M48.85 25.46a3.42 3.42 0 00.08-1 22.5 22.5 0 00-44.86 0 3.46 3.46 0 00.08 1 2.09 2.09 0 00-.15.79v19.39a2.12 2.12 0 002.12 2.13h.94a3.6 3.6 0 005.83 0h26.87a3.59 3.59 0 005.82 0h1.3A2.12 2.12 0 0049 45.64V26.25a2.09 2.09 0 00-.15-.79zM8.25 43.52V28.37h36.5v15.15zM26.5 8a18.34 18.34 0 0118.13 16.12H8.37A18.34 18.34 0 0126.5 8z"/><circle class="cls-2" cx="21.21" cy="35.94" r="3"/><circle class="cls-2" cx="31.79" cy="35.94" r="3"/></g></g></svg>