<svg xmlns="http://www.w3.org/2000/svg" viewBox="0 0 53.15 53.15"><defs><style>.cls-2{fill:#fff}</style></defs><g id="图层_2" data-name="图层 2"><g id="图层_1-2" data-name="图层 1"><rect width="53.15" height="53.15" rx="10.61" opacity=".01" fill="#fff"/><path class="cls-2" d="M22.53 18H2.34a1.78 1.78 0 010-3.56h20.19a1.78 1.78 0 010 3.56zM23.65 27.06H2.34a1.94 1.94 0 010-3.87h21.31a1.94 1.94 0 010 3.87zM41 27.06H29.61a1.94 1.94 0 010-3.87H41a1.94 1.94 0 110 3.87zM47.69 45.25H2.34a2.34 2.34 0 110-4.67h45.35a2.34 2.34 0 110 4.67zM27.31 35.63H8.83a1.61 1.61 0 010-3.22h18.48a1.61 1.61 0 010 3.22z"/></g></g></svg>