<svg xmlns="http://www.w3.org/2000/svg" viewBox="0 0 47.7 47.7"><g data-name="图层 2"><g data-name="图层 1" fill="#fff"><rect width="47.7" height="47.7" rx="10.61" opacity=".01"/><path d="M44 21.16l-2.88-2.89A3.81 3.81 0 0140 15.58v-4.07a3.81 3.81 0 00-3.81-3.81h-4.08a3.82 3.82 0 01-2.69-1.11L26.54 3.7a3.81 3.81 0 00-5.38 0l-2.89 2.89a3.81 3.81 0 01-2.69 1.11h-4.07a3.8 3.8 0 00-3.81 3.81v4.07a3.81 3.81 0 01-1.11 2.69L3.7 21.16a3.81 3.81 0 000 5.38l2.89 2.88a3.82 3.82 0 011.11 2.69v4.08A3.81 3.81 0 0011.51 40h4.07a3.81 3.81 0 012.69 1.11L21.16 44a3.8 3.8 0 005.38 0l2.88-2.88A3.82 3.82 0 0132.11 40h4.08A3.82 3.82 0 0040 36.19v-4.08a3.82 3.82 0 011.11-2.69L44 26.54a3.8 3.8 0 000-5.38zM23.85 33.84a10 10 0 1110-10 10 10 0 01-10 10z"/></g></g></svg>