<svg xmlns="http://www.w3.org/2000/svg" viewBox="0 0 47.7 47.7"><defs><style>.cls-3{fill:#fff;stroke:#fff;stroke-miterlimit:10;stroke-width:1.5px}</style></defs><g id="图层_2" data-name="图层 2"><g id="图层_1-2" data-name="图层 1"><rect width="47.7" height="47.7" rx="10.61" opacity=".01" fill="#fff"/><path d="M23.85 14.53a9.32 9.32 0 11-9.32 9.32 9.33 9.33 0 019.32-9.32m0-2.87A12.19 12.19 0 1036 23.85a12.19 12.19 0 00-12.15-12.19z" fill="#fff"/><path class="cls-3" d="M8.24 23.85v-1H2.13a1 1 0 100 1.91h6.16c-.02-.27-.05-.59-.05-.91zM12.17 13.52q.64-.7 1.35-1.35L9.16 7.81a1 1 0 10-1.35 1.35zM23.85 8.24h.95V2.13a1 1 0 10-1.91 0v6.16c.32-.02.64-.05.96-.05zM35.52 13.52l4.36-4.36a.94.94 0 000-1.35 1 1 0 00-1.35 0l-4.36 4.36a17.2 17.2 0 011.35 1.35zM35.52 34.17a14.33 14.33 0 01-1.35 1.35l4.36 4.36a.94.94 0 00.68.28.92.92 0 00.67-.28.94.94 0 000-1.35zM45.57 22.89h-6.16c0 .32.05.64.05 1s0 .64-.05.95h6.16a1 1 0 100-1.91zM12.17 34.17l-4.36 4.36a1 1 0 000 1.35.94.94 0 00.68.28.92.92 0 00.67-.28l4.36-4.36a17.2 17.2 0 01-1.35-1.35zM23.85 39.46c-.32 0-.64 0-1-.05v6.16a1 1 0 101.91 0v-6.16c-.27.02-.59.05-.91.05z"/></g></g></svg>