<svg xmlns="http://www.w3.org/2000/svg" viewBox="0 0 53.15 53.15"><defs><style>.cls-2{fill:#fff100}.cls-5{fill:none;stroke:#fff;stroke-linecap:round;stroke-miterlimit:10;stroke-width:2.51px}</style></defs><g id="图层_2" data-name="图层 2"><g id="图层_1-2" data-name="图层 1"><rect x="18.45" y="-7.19" width="16.23" height="41.75" rx="4.72" transform="rotate(-90 26.565 13.685)" fill="#231f20"/><path class="cls-2" d="M14.51 5.57a1.29 1.29 0 01-.37.85l-8.45 8.45v2.22a5 5 0 00.14 1.1L18.46 5.57zM10.25 21L25.64 5.57H21.7a1.29 1.29 0 01-.37.85L7.21 20.54a4.71 4.71 0 002.68 1.22 1.31 1.31 0 01.36-.76zM47.46 10.29a4.42 4.42 0 00-.15-1.1L34.69 21.81h3.94A1.34 1.34 0 0139 21l8.46-8.45zM41.88 21.81h.86a4.72 4.72 0 004.72-4.72v-.86zM17.44 21L32.83 5.57h-3.94a1.29 1.29 0 01-.37.85L13.13 21.81h3.94a1.29 1.29 0 01.37-.81zM11.27 5.57h-.86a4.72 4.72 0 00-4.72 4.72v.85zM24.63 21L40 5.57h-3.92a1.34 1.34 0 01-.37.85l-15.4 15.39h4a1.29 1.29 0 01.32-.81zM31.82 21L45.94 6.84a4.65 4.65 0 00-2.68-1.22 1.33 1.33 0 01-.36.8L27.5 21.81h3.95a1.29 1.29 0 01.37-.81z"/><rect width="53.15" height="53.15" rx="2.63" opacity=".01" fill="#fff"/><path d="M42.74 23.13H10.41a6 6 0 01-6-6v-6.8a6 6 0 016-6h32.33a6 6 0 016 6v6.8a6 6 0 01-6 6zM10.41 6.88A3.41 3.41 0 007 10.29v6.8a3.4 3.4 0 003.4 3.4h32.34a3.4 3.4 0 003.4-3.4v-6.8a3.41 3.41 0 00-3.4-3.41z" fill="#fff"/><path class="cls-5" d="M2.48 10.25V48.9M50.67 10.25V48.9M2.8 42.43h47.01"/></g></g></svg>