<svg xmlns="http://www.w3.org/2000/svg" viewBox="0 0 53.15 53.15"><defs><style>.cls-2{fill:#fff}</style></defs><g id="图层_2" data-name="图层 2"><g id="图层_1-2" data-name="图层 1"><rect width="53.15" height="53.15" rx="10.61" opacity=".01" fill="#fff"/><rect class="cls-2" x="39.75" y="10.72" width="12.33" height="31.71" rx="3.58"/><rect class="cls-2" x="1.06" y="10.72" width="12.33" height="31.71" rx="3.58"/><path class="cls-2" d="M34.86 20.77a2.36 2.36 0 00-3.81 2.8l.47.64h-9.9l.47-.64a2.36 2.36 0 00-3.8-2.8l-3.24 4.4a2.34 2.34 0 000 2.8l3.24 4.41a2.36 2.36 0 103.8-2.8l-.47-.65h9.91l-.48.65a2.36 2.36 0 00.51 3.3 2.34 2.34 0 001.39.46 2.37 2.37 0 001.91-1L38.1 28a2.37 2.37 0 000-2.8z"/></g></g></svg>