<svg xmlns="http://www.w3.org/2000/svg" viewBox="0 0 53.15 53.15"><defs><style>.cls-3{fill:#fff}.cls-4{fill:none;stroke:#fff;stroke-miterlimit:10;stroke-linecap:round;stroke-width:2.22px}</style></defs><g id="图层_2" data-name="图层 2"><g id="图层_1-2" data-name="图层 1"><rect width="53.15" height="53.15" rx="10.61" opacity=".01" fill="#fff"/><rect x="19.41" y="-6.16" width="14.33" height="36.85" rx="4.16" transform="rotate(-90 26.575 12.265)" stroke-width="2.32" fill="none" stroke="#fff" stroke-miterlimit="10"/><path class="cls-3" d="M15.93 5.1a1.21 1.21 0 01-.32.75L8.15 13.3v2a4.37 4.37 0 00.12 1L19.41 5.1zM12.17 18.68L25.75 5.1h-3.48a1.11 1.11 0 01-.32.75L9.49 18.31a4.09 4.09 0 002.36 1.07 1.22 1.22 0 01.32-.7zM45 9.26a3.91 3.91 0 00-.13-1L33.74 19.43h3.48a1.11 1.11 0 01.32-.75L45 11.22zM40.08 19.43h.76A4.17 4.17 0 0045 15.26v-.75zM18.51 18.68L32.1 5.1h-3.48a1.17 1.17 0 01-.33.75L14.71 19.43h3.48a1.15 1.15 0 01.32-.75zM13.07 5.1h-.76a4.16 4.16 0 00-4.16 4.16V10zM24.86 18.68L38.44 5.1H35a1.17 1.17 0 01-.33.75L21.05 19.43h3.48a1.17 1.17 0 01.33-.75zM31.2 18.68L43.66 6.22a4.16 4.16 0 00-2.37-1.08 1.15 1.15 0 01-.31.71L27.39 19.43h3.48a1.17 1.17 0 01.33-.75z"/><path class="cls-4" d="M5.31 9.23v34.1M47.83 9.23v34.1"/><path stroke-width="2" stroke-linecap="round" fill="none" stroke="#fff" stroke-miterlimit="10" d="M2.08 43.73h48.99"/><path class="cls-4" d="M5.59 37.62h41.49"/></g></g></svg>