<svg xmlns="http://www.w3.org/2000/svg" viewBox="0 0 47.7 47.7"><g data-name="图层 2"><g data-name="图层 1"><rect width="47.7" height="47.7" rx="10.61" opacity=".01" fill="#fff"/><path d="M19.52 15.07L14.17 3.34A22.69 22.69 0 002.09 17.48l12.4 3.46a9.8 9.8 0 015.03-5.87z" fill="#221f1f"/><path d="M14.05 23.85a9.58 9.58 0 01.3-2.35L1.93 18A22.68 22.68 0 005.4 37l10.39-7.63a9.75 9.75 0 01-1.74-5.52z" fill="#8b2780"/><path d="M16.13 29.87L5.74 37.5a22.65 22.65 0 0017.82 9V33.63a9.76 9.76 0 01-7.43-3.76z" fill="#3ec3f2"/><path d="M31.56 29.87a9.72 9.72 0 01-7.42 3.76v12.89A22.65 22.65 0 0042 37.5z" fill="#a3cc41"/><path d="M45.77 18l-12.42 3.5a9.58 9.58 0 01.3 2.35 9.75 9.75 0 01-1.74 5.56L42.29 37a22.64 22.64 0 003.48-19z" fill="#fbed1d"/><path d="M23.85 14.05a9.68 9.68 0 013.81.77L33 3.11a22.68 22.68 0 00-18.31 0L20 14.82a9.68 9.68 0 013.85-.77z" fill="#fff"/><path d="M33.21 20.94l12.4-3.46A22.75 22.75 0 0033.53 3.34l-5.35 11.73a9.83 9.83 0 015.03 5.87z" fill="#ee404b"/></g></g></svg>