<svg xmlns="http://www.w3.org/2000/svg" viewBox="0 0 178.58 178.58"><g data-name="图层 2"><g data-name="图层 1" fill="#fff"><rect width="178.58" height="178.58" rx="34.09" opacity=".05"/><path d="M170.78 80.4a10 10 0 00-8.7-9.7l-5.9-.71a4.62 4.62 0 01-3.81-3 65.78 65.78 0 00-4-9 4.61 4.61 0 01.34-4.87c1.17-1.61 2.33-3.23 3.46-4.83a10 10 0 00-1.25-13l-10.34-9.91a10 10 0 00-13-.7c-1.55 1.2-3.12 2.42-4.68 3.66a4.58 4.58 0 01-4.83.55 67.37 67.37 0 00-9.18-3.58 4.57 4.57 0 01-3.18-3.65q-.48-3-1-5.88a10.06 10.06 0 00-9.99-8.29L80.4 7.8a10 10 0 00-9.7 8.7q-.37 2.92-.71 5.9a4.6 4.6 0 01-3 3.8 67.64 67.64 0 00-9 4 4.58 4.58 0 01-4.84-.35l-4.84-3.46a10 10 0 00-9.81-.95 9.88 9.88 0 00-3.16 2.21L25.38 38a10 10 0 00-.7 13c1.19 1.54 2.42 3.11 3.66 4.68a4.58 4.58 0 01.55 4.83 66.37 66.37 0 00-3.58 9.18 4.58 4.58 0 01-3.65 3.18q-3 .47-5.84 1a10 10 0 00-8.33 10l.31 14.31a10 10 0 008.7 9.7c1.94.25 3.92.49 5.9.72a4.58 4.58 0 013.8 3 67.08 67.08 0 004 9 4.6 4.6 0 01-.35 4.85c-1.17 1.61-2.33 3.23-3.46 4.83a10 10 0 001.26 13L38 153.2a10 10 0 0013 .7c1.55-1.19 3.12-2.42 4.69-3.66a4.56 4.56 0 014.82-.55 66.09 66.09 0 009.18 3.58 4.59 4.59 0 013.19 3.67c.31 2 .63 3.93 1 5.86a10.06 10.06 0 0010.06 8.29l14.32-.31a10 10 0 009.7-8.7q.38-2.91.72-5.9a4.59 4.59 0 013-3.8 67 67 0 009-4 4.58 4.58 0 014.85.34c1.61 1.17 3.23 2.33 4.83 3.46a10 10 0 0013-1.25l9.91-10.34a10 10 0 00.7-13c-1.19-1.55-2.42-3.12-3.66-4.68a4.58 4.58 0 01-.55-4.83 67.37 67.37 0 003.58-9.18 4.57 4.57 0 013.67-3.18c2-.32 3.93-.64 5.86-1a10.05 10.05 0 008.29-10.06zm-45.14 8.12A36.41 36.41 0 1188.52 53a36.41 36.41 0 0137.12 35.57z"/></g></g></svg>