<svg viewBox="0 0 53 53" xmlns="http://www.w3.org/2000/svg"><g fill="#fff"><rect height="53" opacity=".03" rx="7.93" width="53"/><path d="M26.5 2.35A24.15 24.15 0 1050.65 26.5 24.17 24.17 0 0026.5 2.35zm0 44.05a19.9 19.9 0 1119.9-19.9 19.93 19.93 0 01-19.9 19.9z"/><path d="M26.5 9.37A17.13 17.13 0 1043.63 26.5 17.16 17.16 0 0026.5 9.37zm12.68 15h-5.53V15.8a12.92 12.92 0 015.53 8.52zm-15.74-.88h6v5.92h-6zm6-9.47v5.22h-6V14a12.82 12.82 0 013.06-.38 12.58 12.58 0 012.9.38zm-10.25 1.9v8.4h-5.36a12.84 12.84 0 015.36-8.4zm-5.38 12.65h5.38v8.51a12.84 12.84 0 01-5.38-8.51zM23.44 39v-5.38h6V39a12.58 12.58 0 01-2.9.34 12.82 12.82 0 01-3.1-.34zm10.21-1.8v-8.63h5.54a12.88 12.88 0 01-5.54 8.63z"/></g></svg>