<svg xmlns="http://www.w3.org/2000/svg" viewBox="0 0 65 65"><defs><style>.cls-2{fill:#fff}</style></defs><g id="图层_2" data-name="图层 2"><g id="图层_1-2" data-name="图层 1"><rect width="65" height="65" rx="7.09" opacity=".05" fill="#fff"/><path class="cls-2" d="M22.61 3.1a4.33 4.33 0 11-4.21 5.36 4.33 4.33 0 014.21-5.36z"/><path class="cls-2" d="M57.57 22.5l-19.16 9.58a1 1 0 00-.35.31 25.11 25.11 0 01-2.88 3.54c-1.44 1.47-4.55 2-4.55 3.64l-.3 21c-1.16 1.06-2.23 2.11-3.54 2.1a2.37 2.37 0 01-2.36-2.38l-.8-17.53a1 1 0 00-.82-.9 5 5 0 01-3-1.34c-5-4.95 3-13.21-1.7-18.4L6.62 7.68a2.37 2.37 0 113.51-3.19C12.7 7.3 21.88 21.64 25.69 16.62L36.22 2.78a.92.92 0 01.62-.37c2.82-.34 3.9 2.25 2.7 3.83L30 18.76c-.8 4.93 5.27-2.34 9.41 1.71a4.83 4.83 0 011.2 2 1 1 0 001.24.64l13.82-5a2.37 2.37 0 111.89 4.35z"/></g></g></svg>