<svg xmlns="http://www.w3.org/2000/svg" viewBox="0 0 65 65"><g data-name="图层 2"><g data-name="图层 1" fill="#fff"><rect width="65" height="65" rx="7.09" opacity=".05"/><path d="M28.06 33.23a1.17 1.17 0 00-1.16 1l-4.49 23.23a4.26 4.26 0 01-4.18 3.46 3.71 3.71 0 01-.81-.08 4.27 4.27 0 01-3.39-5l4.1-21.22A1.18 1.18 0 0017 33.23h-4.21a4.27 4.27 0 010-8.54h6.29a1.15 1.15 0 001.15-1l1.83-9.44a12.59 12.59 0 1124.73 4.76 4.26 4.26 0 01-7.71 1.6 4.22 4.22 0 01-.66-3.2 4 4 0 00-.64-3 4 4 0 00-2.58-1.72 4.05 4.05 0 00-3.05.63 4.1 4.1 0 00-1.72 2.58L29 23.29a1.13 1.13 0 00.24 1 1.15 1.15 0 00.91.43h6.05a4.27 4.27 0 010 8.54zm28.42 23.43a4.27 4.27 0 11-8.54 0v-7.59a3.21 3.21 0 00-1-2.31 3.33 3.33 0 00-4.63 0 3.26 3.26 0 00-1 2.31v7.59a4.27 4.27 0 11-8.54 0v-7.59a11.83 11.83 0 0123.65 0z"/></g></g></svg>