<svg xmlns="http://www.w3.org/2000/svg" viewBox="0 0 65 65"><g data-name="图层 2"><g data-name="图层 1" fill="#fff"><rect width="65" height="65" rx="7.09" opacity=".05"/><path d="M59.29 36.8a4.78 4.78 0 01-7.13.58c-.79-.75-1.54-1.53-2.3-2.3l-3.43-3.42-5.71-5.72A1.6 1.6 0 0038 27.07V53.6a5.29 5.29 0 01-1.53 4 5.48 5.48 0 01-7.92 0 5.29 5.29 0 01-1.53-4V27.07a1.6 1.6 0 00-2.73-1.13q-2.85 2.86-5.72 5.72l-3.42 3.43c-.77.76-1.51 1.54-2.3 2.29a4.8 4.8 0 01-8.08-3.91 4.68 4.68 0 01.5-1.71A8.53 8.53 0 017 29.65q5.72-5.71 11.44-11.44l5.72-5.72 4.11-4.11 1.2-1.18.32-.32s0-.11.11-.11a4 4 0 015.2 0c.08 0 .07.08.11.11l.32.32 1.18 1.18 4.11 4.11 5.72 5.72L58 29.65a8.79 8.79 0 011.77 2.11 4.87 4.87 0 01.49 1.71 4.8 4.8 0 01-.97 3.33z"/></g></g></svg>