<svg xmlns="http://www.w3.org/2000/svg" viewBox="0 0 65 65"><defs><style>.cls-2{fill:#fff}</style></defs><g id="图层_2" data-name="图层 2"><g id="图层_1-2" data-name="图层 1"><rect width="65" height="65" rx="7.09" opacity=".05" fill="#fff"/><path class="cls-2" d="M53.35 11.65A29.48 29.48 0 1062 32.5a29.39 29.39 0 00-8.65-20.85zM57.73 36A25.5 25.5 0 0136 57.73a1.28 1.28 0 01-1-.31 1.32 1.32 0 01-.46-1 2 2 0 10-4 0 1.32 1.32 0 01-.46 1 1.28 1.28 0 01-1.06.31A25.5 25.5 0 017.27 36a1.28 1.28 0 01.31-1 1.32 1.32 0 011-.46 2 2 0 000-4A1.33 1.33 0 017.27 29 25.5 25.5 0 0129 7.27a1.34 1.34 0 011.5 1.27 2 2 0 004 0A1.34 1.34 0 0136 7.27 25.49 25.49 0 0157.73 29a1.34 1.34 0 01-1.22 1.52 2 2 0 000 4A1.34 1.34 0 0157.73 36z"/><path class="cls-2" d="M29.79 32.85A1.86 1.86 0 0028 34.36l-3 15.35a2.79 2.79 0 11-5.48-1.05l2.63-13.59a1.88 1.88 0 00-1.83-2.22H18.5a2.8 2.8 0 110-5.59h3.61a1.86 1.86 0 001.83-1.51L25.05 20a8.55 8.55 0 0110-6.77 8.56 8.56 0 016.78 10 2.79 2.79 0 11-5.48-1.05 3 3 0 00-.47-2.22 2.94 2.94 0 00-4.1-.79A3 3 0 0030.54 21l-.78 4a1.86 1.86 0 001.83 2.22h3.09a2.8 2.8 0 010 5.59zm18.74 16.34a2.8 2.8 0 01-5.59 0V44a2.43 2.43 0 00-.72-1.71 2.4 2.4 0 00-1.71-.71A2.42 2.42 0 0038.09 44v5.24a2.8 2.8 0 01-5.59 0V44a8 8 0 018-8 8 8 0 018 8z"/></g></g></svg>