<svg xmlns="http://www.w3.org/2000/svg" viewBox="0 0 47.7 47.7"><defs><style>.cls-2{fill:#fff}</style></defs><g id="图层_2" data-name="图层 2"><g id="图层_1-2" data-name="图层 1"><rect width="47.7" height="47.7" rx="10.61" opacity=".01" fill="#fff"/><rect class="cls-2" x="18.23" y="28.06" width="11.24" height="11.24" rx=".98"/><rect class="cls-2" x="18.26" y="39.83" width="11.18" height="1.42" rx=".71"/><rect class="cls-2" x="18.26" y="41.78" width="11.18" height="1.42" rx=".71"/><rect class="cls-2" x="18.26" y="43.74" width="11.18" height="1.42" rx=".71"/><rect class="cls-2" x="19.03" y="45.66" width="9.63" height="1.42" rx=".66"/><path class="cls-2" d="M23.85.61A18.15 18.15 0 1042 18.76 18.15 18.15 0 0023.85.61zm4.06 26.82h-.31l-4.12-9.7-4.15 9.7H19l-5.52-13.38h1.73l3.95 9.82 4.17-9.82h.29l4.15 9.82 4-9.82h1.76z"/></g></g></svg>