<svg xmlns="http://www.w3.org/2000/svg" viewBox="0 0 42.52 42.52"><defs><radialGradient id="未命名的渐变_34" cx="16.37" cy="21.2" r="19.17" gradientUnits="userSpaceOnUse"><stop offset=".16" stop-color="#fff100" stop-opacity="0"/><stop offset=".44" stop-color="#fcc52a" stop-opacity=".06"/><stop offset=".55" stop-color="#faaf40" stop-opacity=".09"/><stop offset=".6" stop-color="#faba3d" stop-opacity=".2"/><stop offset=".72" stop-color="#f9d836" stop-opacity=".46"/><stop offset=".8" stop-color="#f9ec31" stop-opacity=".65"/><stop offset=".81" stop-color="#faeb2e" stop-opacity=".68"/><stop offset=".86" stop-color="#fce523" stop-opacity=".8"/><stop offset=".91" stop-color="#fee01b" stop-opacity=".88"/><stop offset=".96" stop-color="#ffde17" stop-opacity=".93"/><stop offset="1" stop-color="#ffdd15" stop-opacity=".95"/></radialGradient><style>.cls-1{fill:#fff}</style></defs><g id="图层_2" data-name="图层 2"><g id="图层_1-2" data-name="图层 1"><rect class="cls-1" x="17.33" y="36.7" width="7.86" height="1" rx=".5"/><rect class="cls-1" x="17.87" y="38.06" width="6.77" height="1" rx=".46"/><rect width="42.52" height="42.52" rx="9.46" opacity=".01" fill="#fff"/><rect class="cls-1" x="17.31" y="25.68" width="7.9" height="7.9" rx=".69"/><rect class="cls-1" x="17.33" y="33.96" width="7.86" height="1" rx=".5"/><rect class="cls-1" x="17.33" y="35.33" width="7.86" height="1" rx=".5"/><path class="cls-1" d="M21.26 6.38A12.76 12.76 0 1034 19.14 12.76 12.76 0 0021.26 6.38zm2.86 18.86h-.22L21 18.42l-2.92 6.82h-.22L14 15.83h1.22L18 22.74l2.94-6.91h.2L24 22.74l2.82-6.91h1.24z"/><circle cx="21.17" cy="18.88" r="18.37" fill="url(#未命名的渐变_34)"/></g></g></svg>