<svg xmlns="http://www.w3.org/2000/svg" viewBox="0 0 46.64 46.8"><defs><radialGradient id="未命名的渐变_39" cx="23.07" cy="21.53" r="17.73" gradientUnits="userSpaceOnUse"><stop offset=".31" stop-color="#fff100" stop-opacity="0"/><stop offset=".33" stop-color="#fef105" stop-opacity=".06"/><stop offset=".38" stop-color="#fdef11" stop-opacity=".22"/><stop offset=".45" stop-color="#fbed24" stop-opacity=".47"/><stop offset=".49" stop-color="#f9ec31" stop-opacity=".65"/><stop offset=".5" stop-color="#f9e034" stop-opacity=".55"/><stop offset=".51" stop-color="#f9cf38" stop-opacity=".38"/><stop offset=".52" stop-color="#fac13c" stop-opacity=".26"/><stop offset=".53" stop-color="#fab73e" stop-opacity=".16"/><stop offset=".54" stop-color="#fab13f" stop-opacity=".11"/><stop offset=".55" stop-color="#faaf40" stop-opacity=".09"/><stop offset=".6" stop-color="#fbb43b" stop-opacity=".19"/><stop offset=".72" stop-color="#fcc32e" stop-opacity=".46"/><stop offset=".88" stop-color="#ffd919" stop-opacity=".87"/><stop offset=".91" stop-color="#ffdd15" stop-opacity=".95"/></radialGradient><radialGradient id="未命名的渐变_34" cx="22.04" cy="13.54" r="29.09" gradientUnits="userSpaceOnUse"><stop offset=".16" stop-color="#fff100" stop-opacity="0"/><stop offset=".44" stop-color="#fcc52a" stop-opacity=".06"/><stop offset=".55" stop-color="#faaf40" stop-opacity=".09"/><stop offset=".6" stop-color="#faba3d" stop-opacity=".2"/><stop offset=".72" stop-color="#f9d836" stop-opacity=".46"/><stop offset=".8" stop-color="#f9ec31" stop-opacity=".65"/><stop offset=".81" stop-color="#faeb2e" stop-opacity=".68"/><stop offset=".86" stop-color="#fce523" stop-opacity=".8"/><stop offset=".91" stop-color="#fee01b" stop-opacity=".88"/><stop offset=".96" stop-color="#ffde17" stop-opacity=".93"/><stop offset="1" stop-color="#ffdd15" stop-opacity=".95"/></radialGradient><style>.cls-4{fill:#fff}</style></defs><g id="图层_2" data-name="图层 2"><g id="图层_1-2" data-name="图层 1"><rect y=".15" width="46.64" height="46.64" rx="10.37" opacity=".01" fill="#fff"/><circle cx="23.23" cy="26.95" r="16.9" fill="url(#未命名的渐变_39)"/><circle cx="23.23" cy="26.95" r="19.84" fill="url(#未命名的渐变_34)"/><path class="cls-4" d="M21.49 0h3.79a2.92 2.92 0 012.92 2.92v2.49h-9.63V2.92A2.92 2.92 0 0121.49 0zM40.5 26.88a17.18 17.18 0 11-23.94-15.77 1.91 1.91 0 001.14-1.76V7.19a1 1 0 011-1H28a1 1 0 011 1V9.6a1.56 1.56 0 001 1.44 17.17 17.17 0 0110.5 15.84zm-32.77.43a15.62 15.62 0 0019.36 15.31 15.42 15.42 0 0011.82-15.16c0-10.45-11-8.74-21.71-9a9.19 9.19 0 00-9.47 8.85z"/></g></g></svg>