<svg xmlns="http://www.w3.org/2000/svg" viewBox="0 0 44.25 44.46"><defs><radialGradient id="未命名的渐变_39" cx="21.87" cy="21.93" r="18.14" gradientTransform="matrix(.98 0 0 .99 .37 .11)" gradientUnits="userSpaceOnUse"><stop offset=".31" stop-color="#fff100" stop-opacity="0"/><stop offset=".33" stop-color="#fef105" stop-opacity=".06"/><stop offset=".38" stop-color="#fdef11" stop-opacity=".22"/><stop offset=".45" stop-color="#fbed24" stop-opacity=".47"/><stop offset=".49" stop-color="#f9ec31" stop-opacity=".65"/><stop offset=".5" stop-color="#f9e034" stop-opacity=".55"/><stop offset=".51" stop-color="#f9cf38" stop-opacity=".38"/><stop offset=".52" stop-color="#fac13c" stop-opacity=".26"/><stop offset=".53" stop-color="#fab73e" stop-opacity=".16"/><stop offset=".54" stop-color="#fab13f" stop-opacity=".11"/><stop offset=".55" stop-color="#faaf40" stop-opacity=".09"/><stop offset=".6" stop-color="#fbb43b" stop-opacity=".19"/><stop offset=".72" stop-color="#fcc32e" stop-opacity=".46"/><stop offset=".88" stop-color="#ffd919" stop-opacity=".87"/><stop offset=".91" stop-color="#ffdd15" stop-opacity=".95"/></radialGradient><style>.cls-3{fill:#fff}</style></defs><g id="图层_2" data-name="图层 2"><g id="图层_1-2" data-name="图层 1"><rect width="44.25" height="44.25" rx="9.84" opacity=".01" fill="#fff"/><ellipse cx="22.05" cy="27.3" rx="17.01" ry="17.09" fill="url(#未命名的渐变_39)"/><path class="cls-3" d="M20.29.4h3.79A2.92 2.92 0 0127 3.32v2.49h-9.63V3.32A2.92 2.92 0 0120.29.4zM39.3 27.28a17.18 17.18 0 11-23.93-15.77 1.91 1.91 0 001.14-1.76V7.59a1 1 0 011-1h9.27a1 1 0 011 1V10a1.57 1.57 0 001 1.44A17.16 17.16 0 0139.3 27.28zm-32.76.43A15.61 15.61 0 0025.89 43a15.42 15.42 0 0011.83-15.14c0-10.45-11-8.74-21.72-9a9.18 9.18 0 00-9.46 8.85z"/></g></g></svg>