<svg xmlns="http://www.w3.org/2000/svg" viewBox="0 0 45.35 45.51"><defs><style>.cls-2{fill:#fff}</style></defs><g id="图层_2" data-name="图层 2"><g id="图层_1-2" data-name="图层 1"><rect width="45.35" height="45.35" rx="10.09" opacity=".01" fill="#fff"/><rect class="cls-2" x="17.06" y="28.06" width="11.24" height="11.24" rx=".98"/><path class="cls-2" d="M18.88 40.1h7.71a1 1 0 011 1 4.45 4.45 0 01-4.45 4.45h-.73a4.45 4.45 0 01-4.45-4.45 1 1 0 01.92-1zM22.68.61a17.18 17.18 0 1017.17 17.18A17.18 17.18 0 0022.68.61zM26.53 26h-.3l-3.91-9.18L18.4 26h-.3l-5.24-12.67h1.64l3.74 9.3 4-9.3h.27l3.93 9.3 3.81-9.3h1.66z"/></g></g></svg>