<svg xmlns="http://www.w3.org/2000/svg" viewBox="0 0 47.7 47.7"><defs><radialGradient id="未命名的渐变_34" cx="18.96" cy="23.79" r="19.17" gradientUnits="userSpaceOnUse"><stop offset=".16" stop-color="#fff100" stop-opacity="0"/><stop offset=".44" stop-color="#fcc52a" stop-opacity=".06"/><stop offset=".55" stop-color="#faaf40" stop-opacity=".09"/><stop offset=".6" stop-color="#faba3d" stop-opacity=".2"/><stop offset=".72" stop-color="#f9d836" stop-opacity=".46"/><stop offset=".8" stop-color="#f9ec31" stop-opacity=".65"/><stop offset=".81" stop-color="#faeb2e" stop-opacity=".68"/><stop offset=".86" stop-color="#fce523" stop-opacity=".8"/><stop offset=".91" stop-color="#fee01b" stop-opacity=".88"/><stop offset=".96" stop-color="#ffde17" stop-opacity=".93"/><stop offset="1" stop-color="#ffdd15" stop-opacity=".95"/></radialGradient><style>.cls-1{fill:#fff}</style></defs><g id="图层_2" data-name="图层 2"><g id="图层_1-2" data-name="图层 1"><rect class="cls-1" x="19.92" y="39.29" width="7.86" height="1" rx=".5"/><rect class="cls-1" x="20.46" y="40.65" width="6.77" height="1" rx=".46"/><rect width="47.7" height="47.7" rx="10.61" opacity=".01" fill="#fff"/><rect class="cls-1" x="19.9" y="28.27" width="7.9" height="7.9" rx=".69"/><rect class="cls-1" x="19.92" y="36.55" width="7.86" height="1" rx=".5"/><rect class="cls-1" x="19.92" y="37.92" width="7.86" height="1" rx=".5"/><path class="cls-1" d="M23.85 9A12.76 12.76 0 1036.6 21.73 12.76 12.76 0 0023.85 9zm2.86 18.86h-.23L23.59 21l-2.92 6.82h-.22l-3.89-9.41h1.22l2.77 6.91 2.93-6.91h.21l2.91 6.91 2.83-6.91h1.24z"/><circle cx="23.76" cy="21.47" r="18.37" fill="url(#未命名的渐变_34)"/></g></g></svg>