<svg xmlns="http://www.w3.org/2000/svg" viewBox="0 0 22.68 22.68"><g data-name="图层 2"><g data-name="图层 1" fill="#fff"><rect width="22.68" height="22.68" rx="7.09" opacity=".05"/><path d="M19.28 9.2h-5.23a.58.58 0 01-.57-.57V3.4a.57.57 0 00-.57-.57H9.76a.57.57 0 00-.56.57v5.23a.58.58 0 01-.57.57H3.4a.57.57 0 00-.57.56v3.15a.57.57 0 00.57.57h5.23a.58.58 0 01.57.57v5.23a.56.56 0 00.56.56h3.15a.56.56 0 00.57-.56v-5.23a.58.58 0 01.57-.57h5.23a.56.56 0 00.56-.57V9.76a.56.56 0 00-.56-.56z"/></g></g></svg>