<svg xmlns="http://www.w3.org/2000/svg" viewBox="0 0 56.69 56.69"><defs><style>.cls-2{fill:#fff;stroke:#fff;stroke-miterlimit:10;stroke-width:2px}</style></defs><g id="图层_2" data-name="图层 2"><g id="图层_1-2" data-name="图层 1"><path d="M52.26 0H4.43A4.43 4.43 0 000 4.43v47.83a4.43 4.43 0 004.43 4.43H24.8a3.55 3.55 0 017.09 0h20.37a4.43 4.43 0 004.43-4.43V4.43A4.43 4.43 0 0052.26 0z" opacity=".05" fill="#fff"/><circle class="cls-2" cx="17.73" cy="45.63" r="4.9" transform="rotate(-13.28 17.716 45.639)"/><path class="cls-2" d="M17.73 28.77a4.9 4.9 0 11-4.9 4.9 4.9 4.9 0 014.9-4.9zM3.62 19.08L14.81 8a4.39 4.39 0 013.12-1.27 4.42 4.42 0 013.17 1.35L32 19.12a4.58 4.58 0 01.39 6.12 4.46 4.46 0 01-6.6.29l-2.31-2.34a1 1 0 00-1.56.24 4.62 4.62 0 01-8.34.12 1 1 0 00-1.58-.22l-2.26 2.25a4.46 4.46 0 01-6.18.09 4.63 4.63 0 01.06-6.59zm44.04 33.45a2 2 0 01-2-2 2 2 0 012-2 2 2 0 012 2 2 2 0 01-2 2h-.06zm-6.34-.89a2 2 0 01-.82-2.71 2 2 0 012.71-.82 2 2 0 01.82 2.7 2 2 0 01-1.76 1.06 2 2 0 01-.95-.23zm9.88-2a2 2 0 01-.53-2.78 2 2 0 012.78-.53 2 2 0 01.55 2.83 2 2 0 01-1.66.87 2 2 0 01-1.14-.34zm-13.89-3.87a2 2 0 011.75-2.23 2 2 0 012.22 1.76 2 2 0 01-1.75 2.22h-.24a2 2 0 01-1.98-1.75zm14-3a2 2 0 012-2 2 2 0 012 2 2 2 0 01-2 2 2 2 0 01-2.01-2.01zm-14-2.7a2 2 0 012-2 2 2 0 012 2 2 2 0 01-2 2 2 2 0 01-2.06-2.01zm14-2.77a2 2 0 012-2 2 2 0 012 2 2 2 0 01-2 2 2 2 0 01-2.01-2.01zm-14-2.7a2 2 0 012-2 2 2 0 012 2 2 2 0 01-2 2 2 2 0 01-2.06-2.01zm14-2.77a2 2 0 012-2 2 2 0 012 2 2 2 0 01-2 2 2 2 0 01-2.01-2.01zm-14-2.7a2 2 0 012-2 2 2 0 012 2 2 2 0 01-2 2 2 2 0 01-2.06-2.01zm14-2.77a2 2 0 012-2 2 2 0 012 2 2 2 0 01-2 2 2 2 0 01-2.01-2.01zm-14-2.7a2 2 0 012-2 2 2 0 012 2 2 2 0 01-2 2 2 2 0 01-2.06-2.01zm14-2.77a2 2 0 012-2 2 2 0 012 2 2 2 0 01-2 2 2 2 0 01-2.01-2.01zm-14-2.71a2 2 0 012-2 2 2 0 012 2 2 2 0 01-2 2 2 2 0 01-2.06-2.01zm14-2.77a2 2 0 012-2 2 2 0 012 2 2 2 0 01-2 2 2 2 0 01-2.01-2.01zm-12.24-.71a2 2 0 01-1.75-2.22 2 2 0 012.22-1.75 2 2 0 011.75 2.22 2 2 0 01-2 1.77zm11.58-3.41a2 2 0 01.5-2.78 2 2 0 012.79.5 2 2 0 01-.5 2.78 2 2 0 01-1.14.36 2 2 0 01-1.66-.87zm-10.14-2a2 2 0 01.82-2.71 2 2 0 012.67.84 2 2 0 01-.82 2.71 2 2 0 01-.94.23 2 2 0 01-1.74-1.05zm5.11-1.59a2 2 0 012-2 2 2 0 012 2 2 2 0 01-2 2 2 2 0 01-2-2z"/></g></g></svg>