<svg xmlns="http://www.w3.org/2000/svg" viewBox="0 0 53 53"><g data-name="图层 2"><g data-name="图层 1" fill="#fff"><rect width="53" height="53" rx="7.93" opacity=".03"/><path d="M45.65 33.31a2.32 2.32 0 00-3.27 0 23.05 23.05 0 01-4.17 3.28l-6.73-14.38A6.89 6.89 0 0028.94 11V5.05a2.32 2.32 0 00-4.63 0v5.83a6.9 6.9 0 00-2.79 11.33l-6.73 14.38a23.05 23.05 0 01-4.17-3.28 2.32 2.32 0 00-3.27 3.28 27 27 0 005.47 4.22L9.94 47a2.32 2.32 0 001.12 3.08 2.4 2.4 0 001 .21 2.32 2.32 0 002.1-1.33L17 42.79a27 27 0 0019 0l2.87 6.14A2.32 2.32 0 0041 50.26a2.4 2.4 0 001-.21A2.32 2.32 0 0043.06 47l-2.88-6.16a27 27 0 005.47-4.22 2.31 2.31 0 000-3.31zM26.5 15.16a2.28 2.28 0 11-2.28 2.28 2.28 2.28 0 012.28-2.28zM19 38.58l6.69-14.29a5.91 5.91 0 001.68 0L34 38.58a22.62 22.62 0 01-15 0z"/></g></g></svg>