<svg xmlns="http://www.w3.org/2000/svg" viewBox="0 0 65 65"><defs><style>.cls-2{fill:#fff}</style></defs><g id="图层_2" data-name="图层 2"><g id="图层_1-2" data-name="图层 1"><rect width="65" height="65" rx="7.09" opacity=".05" fill="#fff"/><path class="cls-2" d="M30.35 62.5c-2.53 0-15.77-1.69-12.43-5.37l9.27-8.86a2.83 2.83 0 113.9 4.1l-2.07 2a1.42 1.42 0 00.85 2.44 22.89 22.89 0 0018.27-39 2.83 2.83 0 014-4A28.54 28.54 0 0130.35 62.5m2.37-58.13c2.53 0 15.77 1.69 12.43 5.37l-9.27 8.86A2.83 2.83 0 1132 14.5l2.07-2a1.42 1.42 0 00-.85-2.44 22.88 22.88 0 00-18.27 39 2.83 2.83 0 11-4 4A28.55 28.55 0 0132.72 4.37"/><rect class="cls-2" x="21.67" y="23.32" width="21.67" height="20.21" rx="3.68"/></g></g></svg>