<svg xmlns="http://www.w3.org/2000/svg" viewBox="0 0 65 65"><defs><style>.cls-2{fill:#fff}</style></defs><g id="图层_2" data-name="图层 2"><g id="图层_1-2" data-name="图层 1"><rect width="65" height="65" rx="7.09" opacity=".05" fill="#fff"/><path class="cls-2" d="M31.24 61.58c-2.52.05-15.76-1.7-12.43-5.37l9.28-8.86a2.83 2.83 0 113.9 4.1l-2.08 2a1.4 1.4 0 00-.36 1.49 1.42 1.42 0 001.21.95A22.89 22.89 0 0049 16.9a2.82 2.82 0 014-4 28.55 28.55 0 01-21.76 48.68m2.38-58.14c2.52 0 15.76 1.7 12.43 5.38l-9.28 8.86a2.83 2.83 0 01-3.9-4.1l2.08-2a1.42 1.42 0 00-.85-2.44 22.89 22.89 0 00-18.28 39 2.82 2.82 0 11-4 4 28.55 28.55 0 0121.8-48.7"/><path class="cls-2" d="M24.11 38.78V26.22a3.85 3.85 0 015.77-3.33l10.88 6.28a3.85 3.85 0 010 6.66l-10.88 6.28a3.85 3.85 0 01-5.77-3.33z"/></g></g></svg>