<svg xmlns="http://www.w3.org/2000/svg" viewBox="0 0 118 59"><g data-name="图层 2"><g data-name="图层 1" fill="#fff"><rect width="118" height="59" rx="7.09" opacity=".05"/><path d="M105.86 44.91H95.23a7 7 0 002.53-1.11 5.55 5.55 0 002.61-4.11.19.19 0 000-.08v-2.18h5.47v-.3h-5.47v-7.48h5.47v-.3h-5.47v-7.47h5.47v-.31h-5.47V14.1h5.47v-.3h-5.47v-2.43a1.36 1.36 0 00-2.71 0v2.43H82V3.59a1.36 1.36 0 00-2.72 0V13.8H63.54V3.5A1.46 1.46 0 0062 2.14H43.93A1.46 1.46 0 0042.4 3.5a1 1 0 000 .17v10.09H9.92v.3H42.4v7.47H9.92v.31h12.22a7 7 0 00-1.86.93 5.37 5.37 0 00-2.62 4.4v2.11H9.92v.3h7.72v7.48H9.92v.3h7.72v7.48H9.92v.29h7.72v10.43a1.36 1.36 0 002.72 0V45.2h85.5zM82 14.1h15.68v7.47H82zm0 7.78h15.68v7.47H82zM79.33 36A5.57 5.57 0 0082 31.92v-2.27h15.68v6.64a.91.91 0 01-.58.84H76.8A6.86 6.86 0 0079.33 36zM63.54 14.1h15.71v7.47H63.54zm0 7.78h15.71v6.63a.88.88 0 01-.57.84H63.54zm0 10a.24.24 0 000-.08v-2.15h13.92a7 7 0 00-1.91.93c-2.26 1.58-3.26 4.07-2.22 5.58a2.53 2.53 0 001.55 1h-16.5A6.89 6.89 0 0060.9 36a5.57 5.57 0 002.62-4.08zM45.11 5.78a.93.93 0 01.89-.93h13.9a.93.93 0 01.93.93v8H45.11zm0 8.32h15.72v7.47H45.11zm0 7.78h15.72v6.63a.89.89 0 01-.58.84H45.11zM42.48 36a5.78 5.78 0 002.6-3.83 1.13 1.13 0 000-.18v-2.34H59a7.1 7.1 0 00-1.9.93c-2.27 1.58-3.26 4.07-2.22 5.58a2.53 2.53 0 001.54 1H40A6.93 6.93 0 0042.48 36zm-18.43-7.75c2.27-1.58 3.27-4.07 2.22-5.58a2.28 2.28 0 00-1-.79H42.4v6.63a.9.9 0 01-.57.84H21.45a6.64 6.64 0 002.6-1.1zm-3.69 2.07a.91.91 0 01.29-.67h20a7 7 0 00-1.91.93c-2.27 1.58-3.26 4.07-2.22 5.58a2.53 2.53 0 001.55 1H20.36zm71.4 13.61a2.54 2.54 0 001.55 1H20.36v-7.5h75.53a7 7 0 00-1.91.93c-2.27 1.57-3.26 4.07-2.22 5.57z"/></g></g></svg>