<svg xmlns="http://www.w3.org/2000/svg" viewBox="0 0 65 65"><defs><style>.cls-2{fill:#fff}</style></defs><g id="图层_2" data-name="图层 2"><g id="图层_1-2" data-name="图层 1"><rect width="65" height="65" rx="7.09" opacity=".05" fill="#fff"/><path class="cls-2" d="M64.3 22.32a3.45 3.45 0 01-5.14.42c-.56-.54-1.1-1.1-1.65-1.65L55 18.62l-4.08-4.12a1.15 1.15 0 00-2 .81v19.12a3.79 3.79 0 01-1.11 2.9 4 4 0 01-5.7 0 3.79 3.79 0 01-1.11-2.9V15.31a1.15 1.15 0 00-2-.81l-4 4.13-2.47 2.46c-.55.55-1.09 1.11-1.65 1.65a3.46 3.46 0 01-5.15-.42 3.52 3.52 0 01-.73-2.39 3.61 3.61 0 01.36-1.24 6 6 0 011.27-1.51l8.24-8.25Q36.95 6.88 39 4.81l3-3 .82-.81.23-.23s0-.08.08-.08a2.88 2.88 0 013.74 0c.06 0 .06.05.08.08l.23.23.85.85 3 3q2.05 2.07 4.12 4.12l8.24 8.25a6 6 0 011.27 1.51 3.61 3.61 0 01.34 1.2 3.47 3.47 0 01-.7 2.39zM40 45.07a3.61 3.61 0 01-.36 1.24 6 6 0 01-1.27 1.51l-8.24 8.25L26 60.19l-3 3-.85.85-.23.23s0 .08-.08.08a2.88 2.88 0 01-3.74 0c-.06 0-.06 0-.08-.08l-.2-.27-.82-.85-3-3-4.12-4.08-8.24-8.25a6 6 0 01-1.27-1.51A3.61 3.61 0 010 45.07a3.46 3.46 0 015.83-2.81c.56.54 1.1 1.1 1.65 1.65.83.82 1.65 1.65 2.47 2.47l4.12 4.12a1.15 1.15 0 002-.81V30.57a3.79 3.79 0 011.11-2.9 4 4 0 015.7 0 3.79 3.79 0 011.12 2.9v19.12a1.15 1.15 0 002 .81l4-4.13 2.47-2.46c.55-.55 1.09-1.11 1.65-1.65a3.46 3.46 0 015.15.42 3.53 3.53 0 01.73 2.39z"/></g></g></svg>