<svg xmlns="http://www.w3.org/2000/svg" viewBox="0 0 65 65"><defs><style>.cls-2{fill:#fff}</style></defs><g id="图层_2" data-name="图层 2"><g id="图层_1-2" data-name="图层 1"><rect width="65" height="65" rx="7.09" opacity=".05" fill="#fff"/><path class="cls-2" d="M64.3 48.78a3.45 3.45 0 01-5.14.42c-.56-.54-1.1-1.1-1.65-1.66L55 45.07 50.92 41a1.14 1.14 0 00-2 .81v19.08a3.77 3.77 0 01-1.11 2.89 3.94 3.94 0 01-5.7 0A3.77 3.77 0 0141 60.89V41.77a1.14 1.14 0 00-2-.81l-4 4.12-2.47 2.47c-.55.55-1.09 1.11-1.65 1.65a3.46 3.46 0 01-5.15-.42 3.55 3.55 0 01-.68-2.4 3.49 3.49 0 01.36-1.23 6 6 0 011.27-1.52l8.24-8.24L39 31.27l3-3 .85-.86.23-.23s0-.07.08-.07a2.88 2.88 0 013.74 0c.06 0 .06.05.08.07l.23.23.85.86 3 3 4.12 4.12 8.24 8.24a6 6 0 011.27 1.52 3.56 3.56 0 01.31 1.23 3.5 3.5 0 01-.7 2.4zM40 18.62a3.49 3.49 0 01-.36 1.23 6 6 0 01-1.27 1.52q-4.12 4.13-8.24 8.24L26 33.73l-3 3-.85.86-.23.23s0 .07-.08.07a2.88 2.88 0 01-3.74 0c-.06 0-.06-.05-.08-.07l-.23-.23-.79-.9-3-3-4.12-4.08-8.24-8.24a6 6 0 01-1.27-1.52 3.41 3.41 0 01.33-3.63 3.45 3.45 0 015.14-.42c.56.54 1.1 1.1 1.65 1.66L10 19.93 14.08 24a1.14 1.14 0 002-.81V4.11a3.77 3.77 0 011.11-2.89 3.94 3.94 0 015.7 0A3.77 3.77 0 0124 4.11v19.12a1.14 1.14 0 002 .81l4-4.12c.83-.82 1.65-1.64 2.47-2.47.55-.55 1.09-1.11 1.65-1.65a3.46 3.46 0 015.15.42 3.55 3.55 0 01.73 2.4z"/></g></g></svg>