<svg xmlns="http://www.w3.org/2000/svg" viewBox="0 0 65 65"><g data-name="图层 2"><g data-name="图层 1" fill="#fff"><rect width="65" height="65" rx="7.09" opacity=".05"/><path d="M59 46.11a10.11 10.11 0 01-10.11 10.1 10.12 10.12 0 01-10.11-10.1A10.13 10.13 0 0149.41 36a2 2 0 002.09-2V11.61a.79.79 0 00-.21-.54.75.75 0 00-.36-.22l-23.2 4.45c-.39.17-1.51.72-1.51 1.47v34.8a10.11 10.11 0 01-10.11 10.1 10.08 10.08 0 01-7.14-3H9a10.08 10.08 0 01-3-7.15 10.07 10.07 0 013-7.14 10.18 10.18 0 017.65-3 2 2 0 002.09-2V16.16a8.32 8.32 0 017.87-8.27l23.6-4.53h.53A8.3 8.3 0 0159 11.61z"/></g></g></svg>