<svg xmlns="http://www.w3.org/2000/svg" viewBox="0 0 67 67"><g data-name="图层 2"><g data-name="图层 1" fill="#fff"><rect width="67" height="67" rx="10.73" opacity=".01"/><path d="M35.17 2l13.07 7.5 8.71 5a3.35 3.35 0 01.19 5.68L35.35 34.82a3.29 3.29 0 01-3.78 0l-21.31-14.9a3.35 3.35 0 01.24-5.65l8.26-4.77L31.83 2a3.28 3.28 0 013.34 0zM33.5 15.81c-2.75 0-5 1.6-5 3.59s2.25 3.6 5 3.6 5-1.6 5-3.58-2.23-3.59-5-3.59zm14.07 31.37a3.81 3.81 0 11-3.8 3.82 3.8 3.8 0 013.8-3.81zM53 38.67a3.81 3.81 0 11-3.81 3.81A3.82 3.82 0 0153 38.67zm-33.49 15.1a3.81 3.81 0 112.58 4.72 3.81 3.81 0 01-2.58-4.72zm-5.92-7.68a3.81 3.81 0 104.73-2.58 3.82 3.82 0 00-4.73 2.58zm-6.24-7.86a3.81 3.81 0 104.73-2.58 3.81 3.81 0 00-4.73 2.58zM63 27.4a3.35 3.35 0 00-5.21-2.78l-20.84 14a3.25 3.25 0 00-1.48 2.78v20.74a3.35 3.35 0 005 2.9l7.78-4.49L61.3 53a3.28 3.28 0 001.7-2.89V27.4zM26.39 65a3.36 3.36 0 005-2.9V41.3A3.24 3.24 0 0030 38.56L9.29 24.12a3.28 3.28 0 00-3.46-.22 3.27 3.27 0 00-1.8 3v23.21A3.28 3.28 0 005.7 53l13.06 7.54z" stroke="#727171" stroke-miterlimit="10" fill-rule="evenodd"/></g></g></svg>