<svg xmlns="http://www.w3.org/2000/svg" viewBox="0 0 56.69 56.69"><defs><style>.cls-3{fill:#fff;stroke:#fff;stroke-miterlimit:10}</style></defs><g id="图层_2" data-name="图层 2"><g id="图层_1-2" data-name="图层 1"><rect width="56.69" height="56.69" rx="7.09" fill="#fff" opacity=".05"/><path class="cls-3" d="M48.43 16.66v-5.14A8.57 8.57 0 0039.86 3h-23a8.57 8.57 0 00-8.57 8.57v5.15a8.29 8.29 0 00-5.69 7.86v20.89a8.31 8.31 0 008.29 8.27h35a8.3 8.3 0 008.29-8.29V24.52a8.29 8.29 0 00-5.75-7.86zm-34.54-5.14a3 3 0 012.94-2.95h23a3 3 0 013 2.95v11.17l-9.39 7.68a8.45 8.45 0 01-10.15 0l-9.38-7.68zm34.6 33.94a2.66 2.66 0 01-2.66 2.66h-35a2.66 2.66 0 01-2.63-2.66v-19a.53.53 0 01.87-.46l10.63 8.72a14 14 0 0017.29 0L47.63 26a.53.53 0 01.86.41z"/><path class="cls-3" d="M20.37 19h16a2.35 2.35 0 000-4.69h-16a2.35 2.35 0 000 4.69zm13.29 3H23a2.35 2.35 0 000 4.69h10.66a2.35 2.35 0 000-4.69z"/></g></g></svg>