<svg xmlns="http://www.w3.org/2000/svg" viewBox="0 0 37.24 36.85"><g data-name="图层 2"><g data-name="图层 1"><rect x=".19" width="36.85" height="36.85" rx="7.57" fill="#fff" opacity=".01"/><path stroke="#fff" stroke-miterlimit="10" fill="#ee404b" d="M6.54 3.9l-.65.81-.62.82-.6.84-.58.86-.54.88-.52.89-.49.92-.46.92-.42.94-.4.96-.37.96-.07.21-.07.21-.06.22-.05.22-.04.21-.04.22-.02.22-.02.23-.01.22-.01.22v.22l.01.22.02.22.03.23.03.21.04.22.05.22.06.22.06.21.07.21.08.21.08.2.1.2.1.2.1.2.11.19.12.19.13.18.13.18.14.17.14.17.15.17.15.16.16.15.17.15.17.14.18.14.18.13.18.12.19.12.19.11.2.1.2.1.2.09.21.09.21.07.21.07.21.06.22.06.21.04.22.04.22.04.22.02.23.02h.66l.22-.02.22-.02.22-.03.22-.03.22-.05.22-.05.21-.06.21-.07.21-.07.21-.08.2-.09.2-.1.2-.1.2-.11.18-.11.19-.12.18-.13.18-.14.17-.14.17-.14.16-.16.16-.15.15-.17.14-.16.14-.18.14-.18.12-.18.12-.18.12-.19.65-1.37.7-1.35.74-1.32.77-1.3.82-1.28.86-1.25.1-.19.11-.2.09-.2.09-.2.08-.21.07-.21.06-.21.06-.22.05-.21.05-.22.03-.22.03-.22.02-.22.01-.23.01-.22v-.22l-.01-.22-.02-.22-.03-.22-.03-.22-.04-.22-.05-.22-.05-.21-.07-.22-.07-.21-.07-.2-.09-.21-.09-.2-.1-.2-.1-.2-.12-.19-.12-.19-.12-.18-.13-.18-.14-.17-.14-.17-.15-.17-.16-.16-.16-.15-.16-.15-.17-.14-.18-.14-.18-.13-.18-.13-.19-.11-.19-.11-.2-.11-.2-.1-.2-.09-.21-.08-.2-.08-.22-.07-.21-.06-.21-.06-.22-.04-.22-.04-.22-.03-.22-.03-.22-.02-.22-.01h-.23l-.22.01-.22.01-.22.03-.22.02-.22.04-.22.04-.21.06-.22.05-.21.07-.21.07-.21.09-.2.08-.2.1-.2.1-.19.11-.19.11-.19.13-.18.12-.18.14-.17.14-.17.15-.16.15-.16.15-.15.17-.15.16"/><path fill="#5cdd37" stroke="#fff" stroke-miterlimit="10" d="M36.35 13.7l-.37-.96-.4-.96-.43-.94-.45-.92-.49-.91-.52-.9-.54-.88-.58-.86-.6-.84-.62-.82-.66-.81-.14-.16-.15-.17-.16-.15-.16-.15-.17-.15-.17-.14-.18-.14-.18-.12-.19-.12-.19-.12-.19-.11-.2-.1-.2-.1-.2-.08L28 2l-.21-.07-.21-.07-.22-.05-.21-.06-.22-.04-.22-.04-.22-.02-.22-.03-.22-.01-.23-.01h-.22l-.22.01-.22.02-.22.03-.22.03-.22.04-.22.04-.21.06-.22.06-.21.07-.21.08-.2.08-.2.09-.2.1-.2.11-.19.11-.19.11-.18.13-.18.13-.18.14-.17.14-.16.15-.17.15-.15.16-.15.17-.14.17-.14.17-.13.18-.13.18-.12.19-.11.19-.1.2-.1.2-.09.2-.09.21-.07.2-.08.21-.06.22-.05.21-.05.22-.04.22-.03.22-.03.22-.02.22-.01.22v.44l.02.23.02.22.03.22.03.22.04.22.06.21.05.22.07.21.07.21.08.21.09.2.09.2.1.2.11.19.86 1.25.81 1.28.78 1.3.74 1.32.7 1.35.65 1.37.12.19.12.18.12.18.14.18.14.18.14.16.15.17.16.15.16.16.17.14.17.14.18.14.18.13.18.12.19.11.2.11.19.1.21.1.2.09.21.08.21.07.21.07.21.06.22.05.22.05.22.03.21.03.23.02.22.02h.66l.23-.02.22-.02.22-.04.22-.04.21-.04.22-.06.21-.06.21-.07.21-.07.21-.09.2-.09.2-.1.2-.1.19-.11.19-.12.18-.12.18-.13.18-.14.17-.14.16-.15.16-.15.16-.16.15-.17.14-.17.14-.17.13-.18.13-.18.12-.19.11-.19.1-.2.1-.2.09-.2.09-.2.08-.21.07-.21.06-.21.06-.22.05-.22.04-.22.03-.21.03-.23.02-.22.01-.22v-.22l-.01-.22-.01-.22-.02-.23-.03-.22-.03-.22-.04-.21-.05-.22-.06-.21-.07-.22-.07-.21"/><path fill="#257ce0" stroke="#fff" stroke-miterlimit="10" d="M24.28 34.75l-1.02.17-1.03.13-1.03.1-1.03.06-1.03.04H18.1l-1.03-.04-1.03-.06-1.03-.1-1.03-.13-1.02-.17-.22-.04-.21-.05-.22-.06-.21-.06-.21-.07-.21-.08-.2-.09-.2-.09-.2-.1-.2-.11-.19-.11-.18-.12-.19-.13-.18-.13-.17-.14-.17-.14-.16-.15-.16-.16-.15-.16-.15-.17-.14-.17-.14-.18-.12-.18-.13-.18-.11-.19-.11-.19-.11-.2-.09-.2-.09-.21-.08-.2-.08-.21-.07-.21-.06-.22-.05-.21-.05-.22-.03-.22-.03-.22-.03-.22-.01-.22-.01-.22v-.23l.01-.22.02-.22.02-.22.03-.22.04-.22.04-.22.06-.21.06-.22.07-.21.07-.21.08-.2.09-.21.1-.2.1-.19.11-.2.12-.19.12-.18.13-.18.14-.18.14-.17.15-.17.15-.16.16-.15.16-.15.17-.15.17-.14.18-.13.19-.12.18-.12.19-.12.2-.1.2-.1.2-.09.21-.09.2-.08.21-.07.22-.07.21-.05.22-.05.22-.04.22-.04.22-.03.22-.01.22-.02h.22l1.51.12 1.51.07 1.52.02 1.52-.02 1.51-.07 1.51-.12h.22l.22.02.22.01.22.03.22.04.22.04.22.05.21.05.22.07.21.07.2.08.21.09.2.09.2.1.19.1.2.12.18.12.19.12.17.13.18.14.17.15.16.15.16.15.15.16.15.17.14.17.14.18.13.18.12.18.12.19.11.2.1.19.1.2.09.21.08.2.07.21.07.21.06.22.06.21.04.22.04.22.03.22.02.22.02.22.01.22v.23l-.01.22-.02.22-.02.22-.03.22-.04.22-.04.22-.05.21-.06.22-.07.21-.08.21-.08.2-.09.21-.09.2-.11.2-.11.19-.11.19-.13.18-.12.18-.14.18-.14.17-.15.17-.15.16-.16.16-.16.15-.17.14-.18.14-.17.13-.19.13-.18.12-.19.11-.2.11-.2.1-.2.09-.2.09-.21.08-.21.07-.21.06-.22.06-.21.05-.22.04"/></g></g></svg>