<svg xmlns="http://www.w3.org/2000/svg" viewBox="0 0 65 65"><g data-name="图层 2"><g data-name="图层 1" fill="#fff"><rect width="65" height="65" rx="7.09" opacity=".05"/><path d="M13 60.36a5.31 5.31 0 115.31-5.3 5.3 5.3 0 01-5.31 5.3zm0-14.04A5.3 5.3 0 1118.3 41a5.3 5.3 0 01-5.3 5.32zm0-14.03A5.31 5.31 0 1118.3 27a5.3 5.3 0 01-5.3 5.29zm14 0A5.31 5.31 0 1132.33 27 5.3 5.3 0 0127 32.29zm36.14-2.81L42.56 50.06a5.3 5.3 0 01-7.5-7.5l7.26-7.26a1.76 1.76 0 00-1.25-3 5.31 5.31 0 110-10.61 1.77 1.77 0 001.25-3l-7.26-7.25a5.3 5.3 0 017.5-7.5l20.58 20.54a3.56 3.56 0 010 5z"/></g></g></svg>