<svg xmlns="http://www.w3.org/2000/svg" viewBox="0 0 56.69 56.69"><defs><style>.cls-2{fill:#fff;stroke:#fff;stroke-miterlimit:10;stroke-width:2px}</style></defs><g id="图层_2" data-name="图层 2"><g id="图层_1-2" data-name="图层 1"><path d="M4.43 0h47.83a4.43 4.43 0 014.43 4.43v47.83a4.43 4.43 0 01-4.43 4.43H31.89a3.55 3.55 0 00-7.09 0H4.43A4.43 4.43 0 010 52.26V4.43A4.43 4.43 0 014.43 0z" opacity=".05" fill="#fff"/><circle class="cls-2" cx="38.96" cy="45.63" r="4.9" transform="rotate(-76.72 38.956 45.627)"/><path class="cls-2" d="M39 28.77a4.9 4.9 0 104.9 4.9 4.9 4.9 0 00-4.9-4.9zm14.07-9.69L41.88 8a4.39 4.39 0 00-3.12-1.27 4.42 4.42 0 00-3.14 1.32l-10.91 11a4.59 4.59 0 00-.39 6.12 4.46 4.46 0 006.6.29l2.31-2.34a1 1 0 011.56.24 4.63 4.63 0 008.35.12 1 1 0 011.56-.22l2.3 2.32a4.46 4.46 0 006.18.09 4.63 4.63 0 00-.11-6.59zM9 52.53a2 2 0 002-2 2 2 0 00-2-2 2 2 0 00-2 2 2 2 0 002 2zm6.34-.89a2 2 0 00.82-2.71 2 2 0 00-2.71-.82 2 2 0 00-.82 2.7 2 2 0 001.76 1.06 2 2 0 00.98-.23zm-9.88-2A2 2 0 006 46.91a2 2 0 00-2.78-.53 2 2 0 00-.53 2.78 2 2 0 001.68.84 2 2 0 001.12-.31zm13.89-3.92a2 2 0 00-1.75-2.23 2 2 0 00-2.22 1.76 2 2 0 001.75 2.22h.24a2 2 0 002.01-1.7zm-14-3a2 2 0 00-2-2 2 2 0 00-2 2 2 2 0 002 2 2 2 0 002.04-1.96zm14.05-2.7a2 2 0 00-2-2 2 2 0 00-2 2 2 2 0 002 2 2 2 0 002.04-1.96zm-14-2.77a2 2 0 00-2-2 2 2 0 00-2 2 2 2 0 002 2 2 2 0 001.99-1.96zm14.05-2.7a2 2 0 00-2-2 2 2 0 00-2 2 2 2 0 002 2 2 2 0 001.99-1.96zm-14-2.77a2 2 0 00-2-2 2 2 0 00-2 2 2 2 0 002 2 2 2 0 001.94-1.96zm14.05-2.7a2 2 0 00-2-2 2 2 0 00-2 2 2 2 0 002 2 2 2 0 001.94-1.96zm-14-2.77a2 2 0 00-2-2 2 2 0 00-2 2 2 2 0 002 2 2 2 0 001.89-1.96zm14.05-2.7a2 2 0 00-2-2 2 2 0 00-2 2 2 2 0 002 2 2 2 0 001.89-1.96zm-14-2.77a2 2 0 00-2-2 2 2 0 00-2 2 2 2 0 002 2 2 2 0 001.84-1.96zm14.05-2.71a2 2 0 00-2-2 2 2 0 00-2 2 2 2 0 002 2 2 2 0 001.84-1.96zm-14-2.77a2 2 0 00-2-2 2 2 0 00-2 2 2 2 0 002 2 2 2 0 001.79-1.96zm12.24-.71a2 2 0 001.75-2.22 2 2 0 00-2.22-1.75 2 2 0 00-1.75 2.22 2 2 0 002 1.77zM6.05 11.28a2 2 0 00-.5-2.78 2 2 0 00-2.79.5 2 2 0 00.5 2.78 2 2 0 001.14.36 2 2 0 001.65-.86zm10.14-2a2 2 0 00-.82-2.71 2 2 0 00-2.71.82 2 2 0 00.82 2.71 2 2 0 00.94.23 2 2 0 001.77-1.02zM11.07 7.7a2 2 0 00-2-2 2 2 0 00-2 2 2 2 0 002 2 2 2 0 002-2z"/></g></g></svg>