<svg xmlns="http://www.w3.org/2000/svg" viewBox="0 0 62.36 62.36"><defs><style>.cls-3{fill:#fff;stroke:#fff;stroke-miterlimit:10}</style></defs><g id="图层_2" data-name="图层 2"><g id="图层_1-2" data-name="图层 1"><rect width="62.36" height="62.36" rx="7.09" fill="#fff" opacity=".05"/><path class="cls-3" d="M50.61 8.23H11.75a9.09 9.09 0 00-9.08 9.09v26.22a9.09 9.09 0 009.08 9.08h13a3.12 3.12 0 003.17-2.84 3 3 0 00-3-3.16H11.75a3.08 3.08 0 01-3.08-3.08V21.11a.85.85 0 011.48-.57l11 12.28a13.24 13.24 0 0020 0l11.06-12.28a.85.85 0 011.48.57V40a3.11 3.11 0 002.84 3.17 3 3 0 003.16-3V17.32a9.08 9.08 0 00-9.08-9.09zM36.7 28.8a7.23 7.23 0 01-11 0L13.83 15.65a.85.85 0 01.63-1.42H47.9a.85.85 0 01.64 1.42z"/><path class="cls-3" d="M23.79 46.62h22.45a.85.85 0 00.6-1.45L45 43.32a3.09 3.09 0 01-.46-3.86 3 3 0 014.61-.46l8.51 8.5a3 3 0 010 4.24l-8.51 8.51a3 3 0 01-4.4-.17 3.11 3.11 0 01.25-4.19l1.81-1.82a.85.85 0 00-.6-1.45H23.62a3 3 0 01-3-3.16 3.11 3.11 0 013.17-2.84z"/></g></g></svg>