<svg xmlns="http://www.w3.org/2000/svg" viewBox="0 0 62.36 62.36"><defs><style>.cls-2{fill:#fff}</style></defs><g id="图层_2" data-name="图层 2"><g id="图层_1-2" data-name="图层 1"><path d="M57.49 0H4.87A4.87 4.87 0 000 4.87v52.62a4.87 4.87 0 004.87 4.87h22.41a3.9 3.9 0 117.8 0h22.41a4.87 4.87 0 004.87-4.87V4.87A4.87 4.87 0 0057.49 0z" opacity=".05" fill="#fff"/><path class="cls-2" d="M48.45 50.31v-7.65A6.71 6.71 0 0046 37.48L39.38 32a.86.86 0 010-1.32L46 25.42a6.69 6.69 0 002.49-5.22v-8.15a1.33 1.33 0 01.79-1.24 3.4 3.4 0 002.08-3.52 3.65 3.65 0 00-3.55-3H14.59a3.65 3.65 0 00-3.55 3 3.42 3.42 0 002.08 3.52 1.33 1.33 0 01.79 1.24v8.15a6.73 6.73 0 002.5 5.23L23 30.72a.91.91 0 01.32.66.83.83 0 01-.32.62l-6.62 5.44a6.71 6.71 0 00-2.45 5.18v7.65a1.36 1.36 0 01-.79 1.25A3.4 3.4 0 0011 55.07a3.65 3.65 0 003.55 3h33.22a3.65 3.65 0 003.55-3 3.38 3.38 0 00-2.08-3.51 1.36 1.36 0 01-.79-1.25zm-27.68-8.88l5.75-4.72a7 7 0 002.53-4.17 6.66 6.66 0 00-2.4-6.37l-5.86-4.73a2.77 2.77 0 01-1-2.15v-6.82a1.39 1.39 0 011.39-1.39h20.04a1.38 1.38 0 011.38 1.39v6.82a2.77 2.77 0 01-1 2.15L35.88 26a7 7 0 00-2.56 4.15 6.68 6.68 0 002.34 6.39l5.93 4.86a2.77 2.77 0 011 2.14v6.36a1.38 1.38 0 01-1.38 1.38H21.15a1.38 1.38 0 01-1.39-1.38v-6.33a2.77 2.77 0 011.01-2.14z"/><path class="cls-2" d="M24.91 49.52h12.54a2.93 2.93 0 000-5.86H24.91a2.93 2.93 0 000 5.86z"/></g></g></svg>