<svg xmlns="http://www.w3.org/2000/svg" viewBox="0 0 73.7 73.7"><defs><style>.cls-2{fill:#fff}.cls-3{fill:none;stroke:#fff;stroke-linecap:round;stroke-linejoin:round;stroke-width:4.25px}</style></defs><g id="图层_2" data-name="图层 2"><g id="图层_1-2" data-name="图层 1"><rect width="73.7" height="73.7" rx="4.37" opacity=".01" fill="#fff"/><path class="cls-2" d="M14.43 12.74a34.11 34.11 0 1144.84 51.41 3.5 3.5 0 01-4.6-5.28 27.11 27.11 0 10-38.25-2.61 3.5 3.5 0 01-5.28 4.6 34.15 34.15 0 013.29-48.12z"/><path class="cls-2" d="M16.42 56.26a3.48 3.48 0 01-.34 4.93 3.5 3.5 0 01-4.94-.33 3.52 3.52 0 01.34-4.94 3.5 3.5 0 014.94.34zM24.77 62.72a3.49 3.49 0 011.58 4.69 3.51 3.51 0 01-4.7 1.59 3.51 3.51 0 01-1.58-4.69 3.56 3.56 0 01.84-1.07 3.51 3.51 0 013.86-.52zM54.6 58.93a3.51 3.51 0 014.94.35 3.51 3.51 0 01-.35 4.94 3.5 3.5 0 01-4.94-.35 3.49 3.49 0 01.35-4.93z"/><path class="cls-3" d="M52.96 48.85l1.77 15.66M70.39 62.75l-15.66 1.76"/></g></g></svg>