<svg xmlns="http://www.w3.org/2000/svg" viewBox="0 0 65.2 65.2"><defs><style>.cls-3{fill:#fff;stroke:#fff;stroke-miterlimit:10;stroke-width:2px}</style></defs><g id="图层_2" data-name="图层 2"><g id="图层_1-2" data-name="图层 1"><rect width="65.2" height="65.2" rx="7.09" fill="#fff" opacity=".05"/><path class="cls-3" d="M33 13.62a3.38 3.38 0 00-3.1 3.43v14.64a4.13 4.13 0 004.1 4.15h7.79a3.37 3.37 0 003.42-3.09 3.25 3.25 0 00-3.26-3.41h-4.78a.77.77 0 01-.78-.77V16.88A3.26 3.26 0 0033 13.62z"/><path class="cls-3" d="M32.6 62.36a29.77 29.77 0 110-59.53 3.06 3.06 0 010 6.11A23.66 23.66 0 1056.25 32.6a3.06 3.06 0 116.11 0A29.79 29.79 0 0132.6 62.36z"/><path class="cls-3" d="M56.25 32.6a3.05 3.05 0 013.06-3.05 3 3 0 013 3.05 3.06 3.06 0 01-3 3.06 3.07 3.07 0 01-3.06-3.06zm-1.78-9a3.05 3.05 0 011.65-4 3.06 3.06 0 014 1.66 3.07 3.07 0 01-1.65 4 3.19 3.19 0 01-1.17.22 3 3 0 01-2.83-1.92zm-5.12-7.7a3.05 3.05 0 010-4.32 3 3 0 014.32 0 3.07 3.07 0 010 4.32 3.06 3.06 0 01-2.16.89 3.09 3.09 0 01-2.16-.89zm-7.65-5.14a3.06 3.06 0 01-1.64-4 3.05 3.05 0 014-1.64 3.06 3.06 0 011.65 4A3.07 3.07 0 0142.87 11a3.08 3.08 0 01-1.17-.24zm-9-1.82a3.06 3.06 0 01-3-3.06 3.07 3.07 0 013.06-3 3.07 3.07 0 012.98 3.02 3 3 0 01-3.06 3z"/></g></g></svg>