<svg xmlns="http://www.w3.org/2000/svg" viewBox="0 0 67 67"><defs><style>.cls-2{fill:#fff}</style></defs><g id="图层_2" data-name="图层 2"><g id="图层_1-2" data-name="图层 1"><g opacity=".05"><rect class="cls-2" x=".5" y=".5" width="66" height="66" rx="7.59"/><path class="cls-2" d="M58.91 1A7.08 7.08 0 0166 8.09v50.82A7.08 7.08 0 0158.91 66H8.09A7.08 7.08 0 011 58.91V8.09A7.08 7.08 0 018.09 1h50.82m0-1H8.09A8.1 8.1 0 000 8.09v50.82A8.1 8.1 0 008.09 67h50.82A8.1 8.1 0 0067 58.91V8.09A8.1 8.1 0 0058.91 0z"/></g><path class="cls-2" d="M29.54 65.47a6.47 6.47 0 010-12.93 6.36 6.36 0 012.88.68v-7.28a16.24 16.24 0 010-32V2.42a.51.51 0 01.5-.5h2.57a.47.47 0 01.28.09 7.73 7.73 0 01.54 15.34.48.48 0 01-.26.09H36V21a12.21 12.21 0 0111.83 12.14V34a12.15 12.15 0 01-11.67 12.16H36v13.38a6.5 6.5 0 01-6.46 5.93zm6.45-23A8.49 8.49 0 0044.12 34v-.84A8.49 8.49 0 0036 24.67zm-3.57-24.7a12.51 12.51 0 000 24.39V25.28A5.37 5.37 0 0029.58 30v.59a5.5 5.5 0 00.32 1.82.5.5 0 01-.19.59l-2.29 1.55a.57.57 0 01-.28.08.34.34 0 01-.14 0 .51.51 0 01-.32-.27 9.09 9.09 0 01-.82-3.75V30a9 9 0 016.56-8.71zM36 13.64a4 4 0 000-7.86z"/><path class="cls-2" d="M35.49 2.42v.07a7.23 7.23 0 01.56 14.39v.06h-.56v4.51h.15a11.7 11.7 0 0111.69 11.69V34a11.7 11.7 0 01-11.28 11.66h-.56V59.5a6 6 0 11-2.56-5.42v-8.57A15.7 15.7 0 0119.5 30v-.1a15.7 15.7 0 0113.42-15.51v-12h2.57m0 11.79a4.51 4.51 0 000-9v9m-2.57 28.58V24.51A5.85 5.85 0 0029.08 30v.59a5.79 5.79 0 00.35 2l-2.29 1.55a8.55 8.55 0 01-.78-3.54V30a8.58 8.58 0 016.56-8.32v-4.54A13 13 0 0022.21 29.9v.1a13 13 0 0010.71 12.76m2.57.2h.15a9 9 0 009-9v-.84a9 9 0 00-9-9h-.15V43m0-41.54h-2.57a1 1 0 00-1 1v11.09A16.76 16.76 0 0018.5 29.9v.1a16.76 16.76 0 0013.42 16.35v6.11a7.05 7.05 0 00-2.38-.46 7 7 0 106.93 7.67 1.36 1.36 0 000-.2V59 46.64A12.64 12.64 0 0048.33 34v-.84a12.71 12.71 0 00-11.84-12.68v-2.64a8.23 8.23 0 00-.6-16.31 1 1 0 00-.42-.1zm1 11.54V6.46a3.52 3.52 0 010 6.5zm-4.57 28.5A11.93 11.93 0 0123.21 30v-.1a11.93 11.93 0 018.71-11.5v2.53A9.54 9.54 0 0025.36 30v.59a9.55 9.55 0 00.87 4 1 1 0 00.64.54.84.84 0 00.27 0 1 1 0 00.56-.13l2.3-1.58a1 1 0 00.38-1.17 5 5 0 01-.29-1.65V30a4.88 4.88 0 011.84-3.81V41.5zm4.57.41V25.2a8 8 0 017.13 7.94V34a8 8 0 01-7.13 7.93z"/></g></g></svg>