<svg xmlns="http://www.w3.org/2000/svg" viewBox="0 0 65 65"><g data-name="图层 2"><g data-name="图层 1" fill="#fff"><rect width="65" height="65" rx="7.09" opacity=".05"/><path d="M55.59 13.93L25.22 2.6a3.41 3.41 0 00-4.61 3.2v27.27h-3.52l-.24.05h-.5l-.24.06-.24.06-.24.07-.23.08-.24.07-.23.08-.23.09-.22.09-.22.09L14 34l-.21.11-.21.1-.21.11-.2.11-.2.11-.2.11-.2.13-.2.12-.19.14-.2.13-.19.14-.19.15-.19.15-.19.16-.19.16-.18.16-.18.17-.18.18-.18.18-.17.18-.14.2-.16.19-.16.19-.16.2-.16.21-.14.2-.15.22-.07.16-.14.22-.13.22-.17.19-.11.23-.11.22-.11.23-.1.23-.13.27v.23l-.08.24-.07.23-.07.24-.06.24v4.1l.05.21.07.2.06.2.07.19.08.19.08.19.08.19.09.18.1.17.09.17.1.17.11.17.11.17.12.16.12.16.12.16.14.16.14.16.14.16.11.18.15.14.16.15.17.14.17.14.18.14.18.13.19.13.19.12.2.12.2.11.2.11.21.11.22.1.22.09.22.09.23.08.21.1.23.07.24.07.24.06.24.06h4.27l.25-.05.25-.06L19 51l.24-.07.24-.07.23-.07.23-.09.23-.08.23-.09.22-.1.22-.09.21-.1.22-.11.21-.1.2-.11.2-.12.28-.16.27-.18.28-.18.27-.19.27-.21.27-.21.26-.22.26-.23.25-.24.24-.25.24-.26.24-.26.22-.28.22-.28.21-.29.2-.29.19-.31.17-.3.17-.32.16-.32.15-.32.06-.16.07-.16.06-.17.06-.16.06-.17.05-.16.05-.17v-.16l.05-.17V28.46a1.8 1.8 0 012.43-1.69L49.56 34a1.82 1.82 0 011.18 1.7v8.52h-4.01l-.24.05-.24.06-.25.17-.24.07-.23.07-.24.08-.22.08-.23.08-.23.09-.22.09-.22.1-.21.1-.21.11-.21.1-.2.11-.2.11-.2.12-.2.12-.19.13-.2.13-.2.14-.19.14-.19.15-.19.15-.19.15-.19.16-.18.17-.18.17-.18.17-.17.18-.18.19-.17.18-.16.19-.16.2-.16.2-.15.2-.15.21-.14.21-.14.22-.14.21-.12.22-.12.23-.12.22-.11.23-.11.23-.1.23-.09.23-.09.24-.08.23-.07.24-.07.24-.06.23v3.9l.05.21.06.2.06.21.07.2.07.19.07.19.08.19.09.18.09.18.09.18.09.17.1.17.11.16.11.17.12.17.12.16.13.16.13.16.14.16.14.15.15.15.16.15.16.15.16.14.18.14.17.13.18.14.19.12.19.13.2.12.2.11.21.11.21.1.21.1.22.1.22.09.23.08.23.08.23.07.24.07.24.06h.24l.25.05h3.78l.25-.05h.24l.25-.06.24-.06.24-.07.24-.07.23-.08.24-.08.23-.08.22-.09.23-.1.21-.1.22-.1.21-.1.21-.11.2-.11L52 61l.28-.17.28-.17.27-.18.27-.2.27-.2.27-.21.26-.23.26-.23.25-.24.25-.24.24-.26.23-.27.22-.27.22-.28.21-.29.2-.3.19-.3.18-.31.17-.31.15-.32.15-.32.07-.16.06-.17.06-.16.06-.17.06-.16.05-.17v-.16l.05-.17V16.8a3.06 3.06 0 00-1.64-2.87zM27.45 16.3v-3a1.81 1.81 0 012.44-1.7L49.56 19a1.8 1.8 0 011.18 1.69v2.89a1.81 1.81 0 01-2.44 1.7L28.63 18a1.8 1.8 0 01-1.18-1.7z"/></g></g></svg>