<svg xmlns="http://www.w3.org/2000/svg" viewBox="0 0 53.15 53.15"><defs><style>.cls-2{fill:#fff}</style></defs><g id="图层_2" data-name="图层 2"><g id="图层_1-2" data-name="图层 1"><rect width="53.15" height="53.15" rx="10.61" opacity=".01" fill="#fff"/><path class="cls-2" d="M40.58 23.14a1 1 0 011-.94.94.94 0 01.94.94 1 1 0 01-.94.95 1 1 0 01-1-.95zM31.21 23a1 1 0 01.95-.94 1 1 0 01.94.94 1 1 0 01-.94.95 1 1 0 01-.95-.95zm9.37-2.89a1 1 0 011-.94.94.94 0 01.94.94 1 1 0 01-.94.95 1 1 0 01-1-.94zM31.21 20a1 1 0 01.95-.95 1 1 0 01.94.95 1 1 0 01-.94.94 1 1 0 01-.95-.94zm9.37-2.86a1 1 0 01.91-1 1 1 0 011 .91 1 1 0 01-.91 1 .94.94 0 01-1-.92zm-8.5.78a1 1 0 01-.86-1 1 1 0 011-.86 1 1 0 01.86 1 1 1 0 01-1 .86H32zm7.45-2.31a.94.94 0 01-.5-1.23 1 1 0 011.24-.5.94.94 0 01.5 1.24.93.93 0 01-.87.57.83.83 0 01-.37-.09zM33 15a1 1 0 01.56-1.22 1 1 0 011.22.56 1 1 0 01-.56 1.22 1.2 1.2 0 01-.33.05A1 1 0 0133 15zm3-.49a1 1 0 01.95-.95.94.94 0 01.94.95.94.94 0 01-.94.94 1 1 0 01-.95-.92zM41.53 29.06a.94.94 0 01.94.94 1 1 0 01-.94.95.95.95 0 110-1.89zm-9.37.13a1 1 0 01.94.95 1 1 0 01-.94.94.95.95 0 110-1.89zm9.37 2.89a1 1 0 01.94 1 .94.94 0 01-.94.94.95.95 0 110-1.89zm-9.37.14a1 1 0 01.94.94 1 1 0 01-.94.94.94.94 0 110-1.88zm9.37 2.89a.94.94 0 01.91 1 1 1 0 01-1 .91 1 1 0 01-.91-1 .94.94 0 011-.91zm-9.37.13a1 1 0 011 .86 1 1 0 01-.86 1 1 1 0 01-1-.86 1 1 0 01.86-1zm7.74 2.23a.94.94 0 01.87.56 1 1 0 01-.5 1.25 1 1 0 01-1.24-.5 1 1 0 01.5-1.24 1 1 0 01.37-.07zm-6 0a.92.92 0 01.33.06 1 1 0 01.56 1.22 1 1 0 01-1.22.56.95.95 0 01.33-1.84zm3 .17a.94.94 0 01.94.94.93.93 0 01-.94.94.94.94 0 110-1.88z"/><rect class="cls-2" x="1.06" y="14.53" width="9.37" height="24.1" rx="3.21"/><path class="cls-2" d="M51.63 25.19l-3.21-4.36a2.34 2.34 0 00-3.76 2.77l.47.64H13c-1.29 0-1.34 1-1.34 2.33s.05 2.34 1.34 2.34h32.13l-.47.64a2.34 2.34 0 003.76 2.77L51.63 28a2.33 2.33 0 000-2.81z"/></g></g></svg>