<svg xmlns="http://www.w3.org/2000/svg" viewBox="0 0 47.7 47.7"><defs><style>.cls-3{fill:#fff;stroke:#fff;stroke-miterlimit:10;stroke-width:1.12px}</style></defs><g id="图层_2" data-name="图层 2"><g id="图层_1-2" data-name="图层 1"><rect width="47.7" height="47.7" rx="4.37" opacity=".01" fill="#fff"/><path d="M21.12 5.81L12 12.64H3.67a2.51 2.51 0 00-2.5 2.5v17.41a2.51 2.51 0 002.5 2.5H12l9.12 6.83a2.49 2.49 0 004-2V7.81a2.49 2.49 0 00-4-2z" fill="#fff"/><path class="cls-3" d="M32.25 22H37v4.76a1.59 1.59 0 103.17 0V22h4.76a1.59 1.59 0 100-3.17h-4.75V14A1.59 1.59 0 0037 14v4.8h-4.75a1.59 1.59 0 000 3.17zM44.94 32.07H32.25a1.59 1.59 0 000 3.17h12.69a1.59 1.59 0 100-3.17z"/></g></g></svg>