<svg xmlns="http://www.w3.org/2000/svg" viewBox="0 0 47.7 47.7"><defs><style>.cls-2{fill:#fff}</style></defs><g id="图层_2" data-name="图层 2"><g id="图层_1-2" data-name="图层 1"><rect width="47.7" height="47.7" rx="4.37" opacity=".01" fill="#fff"/><path class="cls-2" d="M20.42 7.73l-8.15 6.1H4.82a2.24 2.24 0 00-2.23 2.24v15.56a2.23 2.23 0 002.23 2.23h7.45L20.42 40A2.22 2.22 0 0024 38.18V9.52a2.23 2.23 0 00-3.58-1.79zM33.23 13.38a2.19 2.19 0 00-3.1 3.09 10.41 10.41 0 010 14.73 2.21 2.21 0 000 3.09 2.15 2.15 0 001.54.63 2.13 2.13 0 001.53-.66 14.71 14.71 0 00.03-20.88z"/><path class="cls-2" d="M35.67 8.47a2.19 2.19 0 000 3.09 17.38 17.38 0 010 24.58 2.19 2.19 0 000 3.09 2.14 2.14 0 003.06 0 21.73 21.73 0 000-30.76 2.15 2.15 0 00-3.06 0z"/></g></g></svg>