<svg xmlns="http://www.w3.org/2000/svg" viewBox="0 0 76.54 76.54"><defs><style>.cls-2,.cls-3,.cls-4{fill:#fff}.cls-2,.cls-4{stroke:#fff;stroke-miterlimit:10;stroke-width:1.28px}</style></defs><g id="图层_2" data-name="图层 2"><g id="图层_1-2" data-name="图层 1"><path d="M70.56 0H6a6 6 0 00-6 6v64.56a6 6 0 006 6h27.5a4.79 4.79 0 119.57 0h27.49a6 6 0 006-6V6a6 6 0 00-6-6z" opacity=".03" fill="#fff"/><circle class="cls-2" cx="17.28" cy="67.2" r="3.39" transform="rotate(-76.72 17.28 67.198)"/><path class="cls-2" d="M17.28 55.54a3.39 3.39 0 103.39 3.39 3.39 3.39 0 00-3.39-3.39zM27 48.84l-7.7-7.65a3 3 0 00-2.16-.88 3.08 3.08 0 00-2.18.91L7.4 48.86a3.19 3.19 0 00-.27 4.24 3.08 3.08 0 004.57.19l1.6-1.61a.67.67 0 011.08.16 3.2 3.2 0 005.77.09.67.67 0 011.08-.15l1.58 1.55a3.09 3.09 0 004.28.06 3.18 3.18 0 00-.09-4.55z"/><rect class="cls-3" x="4.42" y="8.62" width="25.63" height="25.63" rx="5.79"/><circle class="cls-4" cx="59.25" cy="12.01" r="3.39" transform="rotate(-76.72 59.252 12.012)"/><path class="cls-4" d="M59.25 23.68a3.39 3.39 0 10-3.39-3.39 3.4 3.4 0 003.39 3.39zM49.49 30.38L57.23 38a3.11 3.11 0 002.16.88 3 3 0 002.19-.88l7.55-7.64a3.17 3.17 0 00.27-4.24 3.09 3.09 0 00-4.57-.2l-1.59 1.62a.67.67 0 01-1.08-.17 3.2 3.2 0 00-5.77-.08.69.69 0 01-1.09.15l-1.57-1.56a3.09 3.09 0 00-4.28-.06 3.21 3.21 0 00.04 4.56z"/><rect class="cls-3" x="46.49" y="44.96" width="25.63" height="25.63" rx="5.79"/></g></g></svg>