<svg xmlns="http://www.w3.org/2000/svg" viewBox="0 0 76.54 76.54"><defs><style>.cls-2{fill:#fff;stroke:#fff;stroke-miterlimit:10}</style></defs><g id="图层_2" data-name="图层 2"><g id="图层_1-2" data-name="图层 1"><path d="M70.56 0H6a6 6 0 00-6 6v64.56a6 6 0 006 6h27.5a4.79 4.79 0 119.57 0h27.49a6 6 0 006-6V6a6 6 0 00-6-6z" opacity=".03" fill="#fff"/><circle class="cls-2" cx="34.23" cy="38.01" r="2.66" transform="rotate(-76.72 34.232 38.015)"/><path class="cls-2" d="M34.23 28.87a2.66 2.66 0 102.66 2.66 2.66 2.66 0 00-2.66-2.66zM41.88 23.62l-6.06-6a2.39 2.39 0 00-1.7-.69 2.41 2.41 0 00-1.7.71l-5.92 6a2.49 2.49 0 00-.22 3.36 2.42 2.42 0 003.58.16l1.25-1.27A.51.51 0 0132 26a2.51 2.51 0 004.53.06.54.54 0 01.85-.12l1.23 1.22a2.43 2.43 0 003.36.05 2.51 2.51 0 00-.09-3.59zM13.82 66.2a2.39 2.39 0 01-2.39-2.39 2.39 2.39 0 012.39-2.38h.06a2.4 2.4 0 012.41 2.36 2.38 2.38 0 01-2.37 2.41h-.07zm-7.55-1.06a2.42 2.42 0 01-1-3.24 2.38 2.38 0 013.24-1 2.38 2.38 0 011 3.22 2.37 2.37 0 01-2.11 1.26 2.37 2.37 0 01-1.13-.24zm11.78-2.33a2.39 2.39 0 01-.64-3.32 2.4 2.4 0 013.32-.63 2.38 2.38 0 01.63 3.32 2.34 2.34 0 01-2 1 2.45 2.45 0 01-1.31-.37zM1.48 58.13a2.39 2.39 0 012.08-2.65 2.39 2.39 0 012.65 2.1 2.37 2.37 0 01-2.08 2.64h-.29a2.38 2.38 0 01-2.36-2.09zm16.69-3.59a2.39 2.39 0 012.38-2.38 2.39 2.39 0 012.39 2.38 2.39 2.39 0 01-2.39 2.39 2.39 2.39 0 01-2.38-2.39zM1.42 51.32a2.38 2.38 0 012.38-2.38 2.39 2.39 0 012.39 2.38 2.38 2.38 0 01-2.39 2.39 2.38 2.38 0 01-2.38-2.39zM18.17 48a2.39 2.39 0 012.38-2.39A2.39 2.39 0 0122.94 48a2.39 2.39 0 01-2.39 2.38A2.39 2.39 0 0118.17 48zM1.42 44.8a2.38 2.38 0 012.38-2.39 2.38 2.38 0 012.39 2.39 2.39 2.39 0 01-2.39 2.38 2.38 2.38 0 01-2.38-2.38zm16.75-3.31a2.38 2.38 0 012.38-2.38 2.38 2.38 0 012.39 2.38 2.39 2.39 0 01-2.39 2.39 2.39 2.39 0 01-2.38-2.39zM1.42 38.27a2.37 2.37 0 012.38-2.38 2.38 2.38 0 012.39 2.38 2.39 2.39 0 01-2.39 2.39 2.38 2.38 0 01-2.38-2.39zM18.17 35a2.39 2.39 0 012.38-2.39A2.39 2.39 0 0122.94 35a2.4 2.4 0 01-2.39 2.39A2.39 2.39 0 0118.17 35zM1.42 31.75a2.38 2.38 0 012.38-2.39 2.38 2.38 0 012.39 2.39 2.39 2.39 0 01-2.39 2.38 2.38 2.38 0 01-2.38-2.38zm16.75-3.31a2.39 2.39 0 012.38-2.39 2.39 2.39 0 012.39 2.39 2.38 2.38 0 01-2.39 2.38 2.38 2.38 0 01-2.38-2.38zM1.42 25.21a2.37 2.37 0 012.38-2.37 2.38 2.38 0 012.39 2.37 2.39 2.39 0 01-2.39 2.4 2.38 2.38 0 01-2.38-2.4zm16.75-3.3a2.39 2.39 0 012.38-2.39 2.4 2.4 0 012.39 2.39 2.38 2.38 0 01-2.39 2.38 2.38 2.38 0 01-2.38-2.38zm-14.61-.85a2.38 2.38 0 01-2.08-2.65 2.39 2.39 0 012.65-2.09A2.38 2.38 0 016.21 19a2.38 2.38 0 01-2.36 2.11zM17.39 17a2.38 2.38 0 01.6-3.32 2.38 2.38 0 013.31.59 2.39 2.39 0 01-.59 3.32 2.31 2.31 0 01-1.36.43A2.38 2.38 0 0117.39 17zm-12.1-2.36a2.38 2.38 0 011-3.23 2.38 2.38 0 013.22 1 2.36 2.36 0 01-1 3.23 2.33 2.33 0 01-1.12.28 2.4 2.4 0 01-2.1-1.28zm6.11-1.92a2.39 2.39 0 012.39-2.38 2.37 2.37 0 012.38 2.38 2.39 2.39 0 01-2.38 2.39 2.4 2.4 0 01-2.39-2.39z"/><circle class="cls-2" cx="42.3" cy="38.52" r="2.66" transform="rotate(-76.72 42.298 38.522)"/><path class="cls-2" d="M42.3 47.66A2.66 2.66 0 1039.65 45a2.66 2.66 0 002.65 2.66zM34.65 52.91l6.07 6a2.43 2.43 0 001.69.69 2.42 2.42 0 001.7-.72l5.92-6a2.5 2.5 0 00.21-3.32 2.42 2.42 0 00-3.58-.15l-1.25 1.27a.53.53 0 01-.85-.13 2.51 2.51 0 00-4.52-.07.53.53 0 01-.85.12L38 49.39a2.38 2.38 0 00-1.7-.7 2.42 2.42 0 00-1.65.65 2.51 2.51 0 000 3.57zM62.71 10.34a2.38 2.38 0 012.38 2.38 2.39 2.39 0 01-2.38 2.39h-.06a2.39 2.39 0 01-2.41-2.36 2.38 2.38 0 012.36-2.41h.07zm7.55 1.06a2.39 2.39 0 011 3.23 2.37 2.37 0 01-3.23 1 2.38 2.38 0 01-1-3.22 2.4 2.4 0 012.11-1.27 2.35 2.35 0 011.12.26zm-11.77 2.32a2.39 2.39 0 01.63 3.28 2.38 2.38 0 01-3.31.63 2.37 2.37 0 01-.64-3.31 2.37 2.37 0 012-1 2.47 2.47 0 011.32.4zm16.57 4.68A2.4 2.4 0 0173 21.06 2.39 2.39 0 0170.32 19a2.39 2.39 0 012.09-2.64h.29a2.39 2.39 0 012.36 2.04zM58.37 22A2.4 2.4 0 0156 24.38 2.39 2.39 0 0153.6 22a2.38 2.38 0 012.4-2.39A2.39 2.39 0 0158.37 22zm16.75 3.22a2.39 2.39 0 01-2.39 2.39 2.39 2.39 0 01-2.38-2.39 2.38 2.38 0 012.38-2.38 2.38 2.38 0 012.39 2.37zm-16.75 3.3A2.38 2.38 0 0156 30.9a2.37 2.37 0 01-2.38-2.38A2.38 2.38 0 0156 26.13a2.39 2.39 0 012.37 2.39zm16.75 3.22a2.38 2.38 0 01-2.39 2.38 2.38 2.38 0 01-2.38-2.38 2.39 2.39 0 012.38-2.39 2.38 2.38 0 012.39 2.39zM58.37 35A2.38 2.38 0 0156 37.43 2.38 2.38 0 0153.6 35a2.38 2.38 0 012.4-2.34A2.39 2.39 0 0158.37 35zm16.75 3.22a2.38 2.38 0 01-2.39 2.39 2.38 2.38 0 01-2.38-2.39 2.39 2.39 0 012.38-2.38 2.38 2.38 0 012.39 2.42zm-16.75 3.35A2.38 2.38 0 0156 44a2.37 2.37 0 01-2.38-2.38A2.38 2.38 0 0156 39.18a2.39 2.39 0 012.37 2.39zm16.75 3.22a2.38 2.38 0 01-2.39 2.38 2.38 2.38 0 01-2.38-2.38 2.39 2.39 0 012.38-2.39 2.38 2.38 0 012.39 2.39zm-16.75 3.3a2.39 2.39 0 01-2.37 2.4 2.38 2.38 0 01-2.38-2.4A2.37 2.37 0 0156 45.72a2.38 2.38 0 012.37 2.37zm16.75 3.23a2.38 2.38 0 01-2.39 2.38 2.38 2.38 0 01-2.38-2.38 2.39 2.39 0 012.38-2.39 2.38 2.38 0 012.39 2.39zm-16.75 3.31A2.39 2.39 0 0156 57a2.38 2.38 0 01-2.38-2.38A2.38 2.38 0 0156 52.24a2.38 2.38 0 012.37 2.39zm14.6.85a2.38 2.38 0 012.09 2.64 2.39 2.39 0 01-2.65 2.09 2.39 2.39 0 01-2.09-2.65 2.39 2.39 0 012.36-2.11 1.36 1.36 0 01.32.03zm-13.82 4.05a2.4 2.4 0 01-.6 3.33 2.38 2.38 0 01-3.32-.6 2.37 2.37 0 01.6-3.31 2.29 2.29 0 011.36-.43 2.4 2.4 0 011.96 1.01zm12.09 2.36a2.39 2.39 0 01-1 3.24 2.39 2.39 0 01-3.22-1 2.39 2.39 0 011-3.24 2.37 2.37 0 011.12-.27 2.38 2.38 0 012.1 1.27zm-6.11 1.92a2.38 2.38 0 01-2.38 2.39 2.38 2.38 0 01-2.39-2.39 2.38 2.38 0 012.39-2.38 2.39 2.39 0 012.38 2.38z"/></g></g></svg>