<svg xmlns="http://www.w3.org/2000/svg" viewBox="0 0 33.21 33.21"><defs><style>.cls-1,.cls-2{fill:#8dc21f;}.cls-1{opacity:0.05;}</style></defs><title>资源 189</title><g id="图层_2" data-name="图层 2"><g id="图层_1-2" data-name="图层 1"><rect class="cls-1" width="33.21" height="33.21" rx="4.96"/><path class="cls-2" d="M13.11,18.89l7.08-7.06,1.73-1.74c.39-.38.77-.78,1.17-1.16a2.45,2.45,0,0,1,4.09,1.31,2.67,2.67,0,0,1-.24,1.54,4,4,0,0,1-.9,1.07l-5.8,5.81-2.9,2.9c-.7.69-1.4,1.39-2.09,2.09l-.6.6-.16.16s0,.05-.06.05a2,2,0,0,1-2.64,0s0,0,0-.05l-.16-.16-.6-.6L8.89,21.56,8.34,21c-1.94-1.94.76.75-1.18-1.19a4.23,4.23,0,0,1-.9-1.07,2.54,2.54,0,0,1-.25-1,2.42,2.42,0,0,1,4.11-1.87l1.16,1.16L13,18.8l.09.09"/></g></g></svg>