<?xml version="1.0" encoding="utf-8"?>
<!-- Generator: Adobe Illustrator 24.0.0, SVG Export Plug-In . SVG Version: 6.00 Build 0)  -->
<svg version="1.1" id="图层_1" xmlns="http://www.w3.org/2000/svg" xmlns:xlink="http://www.w3.org/1999/xlink" x="0px" y="0px"
	 viewBox="0 0 96 124" style="enable-background:new 0 0 96 124;" xml:space="preserve">
<style type="text/css">
	.st0{fill:none;}
	.st1{font-family:'AdobeSongStd-Light-GBpc-EUC-H';}
	.st2{font-size:10px;}
</style>
<rect id="background" y="0" class="st0" width="96" height="124"/>
<g>
	<path class="st0" d="M13,1.5v13L1.7,8L13,1.5z"/>
	<path class="st0" d="M17.5,3h13L24,14.3L17.5,3z"/>
	<path class="st0" d="M35,1.5v13L46.3,8L35,1.5z"/>
</g>
<g transform="translate(0, 16)">
	<path class="st0" d="M13,1.5v13L1.7,8L13,1.5z"/>
	<path class="st0" d="M17.5,3h13L24,14.3L17.5,3z"/>
	<path class="st0" d="M35,1.5v13L46.3,8L35,1.5z"/>
</g>
<text transform="matrix(1 0 0 1 52.3311 28)" class="st0 st1 st2">✓</text>
<text transform="matrix(1 0 0 1 52.3311 28)" class="st0 st1 st2">✓</text>
<g>
	<path class="st0" d="M2,40.4v6h42v-6H33.5l-3-3h-15l-3,3H2z"/>
	<rect x="5" y="49.4" class="st0" width="36" height="20"/>
	<path class="st0" d="M9,49.4h28c2.2,0,4,1.8,4,4v34c0,2.2-1.8,4-4,4H9c-2.2,0-4-1.8-4-4v-34C5,51.2,6.8,49.4,9,49.4z"/>
</g>
<g>
	<circle class="st0" cx="16" cy="108" r="11.5"/>
	<circle class="st0" cx="16" cy="108" r="4.3"/>
	<path class="st0" d="M28,108h3"/>
	<path class="st0" d="M1,108h3"/>
	<path class="st0" d="M16,120v3"/>
	<path class="st0" d="M16,93v3"/>
</g>
<g>
	<circle class="st0" cx="48" cy="108" r="15"/>
	<path class="st0" d="M48,101.6v12.8"/>
	<path class="st0" d="M41.6,108h12.8"/>
</g>
<g>
	<circle class="st0" cx="80" cy="108" r="15"/>
	<path class="st0" d="M73.6,108h12.8"/>
</g>
</svg>
