<svg xmlns="http://www.w3.org/2000/svg" viewBox="0 0 19.01 20.88"><defs><style>.cls-1{fill:#f97f06;}</style></defs><title>资源 193</title><g id="图层_2" data-name="图层 2"><g id="图层_1-2" data-name="图层 1"><path class="cls-1" d="M9.13-6h0a1.54,1.54,0,0,1,1.54,1.54V11.43A1.54,1.54,0,0,1,9.13,13h0a.79.79,0,0,1-.79-.79V-5.26A.79.79,0,0,1,9.13-6Z" transform="translate(6.05 12.97) rotate(-90)"/><path class="cls-1" d="M15.78,6.11H3.23A3,3,0,0,0,0,8.8l1.19,9.33c0,1.48,1.67,2.75,3.45,2.75h9.74c1.78,0,3.45-1.27,3.45-2.75L19,8.8A3,3,0,0,0,15.78,6.11Zm-10,11.14a.62.62,0,0,1-.67.56.63.63,0,0,1-.68-.56V9a.63.63,0,0,1,.68-.56A.62.62,0,0,1,5.79,9Zm4.53,0a.63.63,0,0,1-.68.56A.62.62,0,0,1,9,17.25V9a.62.62,0,0,1,.67-.56.63.63,0,0,1,.68.56Zm4.52,0a.69.69,0,0,1-1.35,0V9a.69.69,0,0,1,1.35,0Z"/><path class="cls-1" d="M10.38,2.14a1.15,1.15,0,0,0,.24-.69V1.17A1.14,1.14,0,0,0,9.51,0h0A1.13,1.13,0,0,0,8.4,1.17v.28a1.09,1.09,0,0,0,.24.69Z"/></g></g></svg>